<svg width="215" height="60" viewBox="0 0 215 60" fill="none" xmlns="http://www.w3.org/2000/svg">
<rect width="215" height="60" rx="16" fill="white"/>
<path d="M63.5591 43.7964C61.926 45.3795 60.1429 45.1295 58.4265 44.3796C56.61 43.6131 54.9436 43.5797 53.0271 44.3796C50.6274 45.4128 49.3609 45.1129 47.9278 43.7964C39.7955 35.4141 40.9953 22.649 50.2275 22.1824C52.4772 22.2991 54.0437 23.4156 55.3602 23.5156C57.3266 23.1156 59.2097 21.9658 61.3094 22.1158C63.8258 22.3157 65.7255 23.3156 66.9754 25.1154C61.776 28.2317 63.0092 35.0808 67.7753 36.9972C66.8254 39.4969 65.5922 41.9799 63.5425 43.813L63.5591 43.7964ZM55.1935 22.0824C54.9436 18.3662 57.9598 15.3 61.4261 15C61.9093 19.2995 57.5266 22.4991 55.1935 22.0824Z" fill="black"/>
<path d="M90.3651 16.0298C90.2827 15.7713 90.1719 15.5398 90.0327 15.3352C89.8963 15.1278 89.733 14.9517 89.5426 14.8068C89.3523 14.6591 89.1349 14.5469 88.8906 14.4702C88.6491 14.3935 88.3835 14.3551 88.0938 14.3551C87.6023 14.3551 87.1591 14.4815 86.7642 14.7344C86.3693 14.9872 86.0568 15.358 85.8267 15.8466C85.5994 16.3324 85.4858 16.9276 85.4858 17.6321C85.4858 18.3395 85.6009 18.9375 85.831 19.4261C86.0611 19.9148 86.3764 20.2855 86.777 20.5384C87.1776 20.7912 87.6335 20.9176 88.1449 20.9176C88.6193 20.9176 89.0327 20.821 89.3849 20.6278C89.7401 20.4347 90.0142 20.1619 90.2074 19.8097C90.4034 19.4545 90.5014 19.0369 90.5014 18.5568L90.8423 18.6207H88.3452V17.5341H91.7756V18.527C91.7756 19.2599 91.6193 19.8963 91.3068 20.4361C90.9972 20.973 90.5682 21.3878 90.0199 21.6804C89.4744 21.973 88.8494 22.1193 88.1449 22.1193C87.3551 22.1193 86.6619 21.9375 86.0653 21.5739C85.4716 21.2102 85.0085 20.6946 84.6761 20.027C84.3438 19.3565 84.1776 18.5611 84.1776 17.6406C84.1776 16.9446 84.2741 16.3196 84.4673 15.7656C84.6605 15.2116 84.9318 14.7415 85.2812 14.3551C85.6335 13.9659 86.0469 13.669 86.5213 13.4645C86.9986 13.2571 87.5199 13.1534 88.0852 13.1534C88.5568 13.1534 88.9957 13.223 89.402 13.3622C89.8111 13.5014 90.1747 13.6989 90.4929 13.9545C90.8139 14.2102 91.0795 14.5142 91.2898 14.8665C91.5 15.2159 91.642 15.6037 91.7159 16.0298H90.3651ZM96.1658 22.1321C95.521 22.1321 94.9656 21.9943 94.4996 21.7188C94.0366 21.4403 93.6786 21.0497 93.4258 20.5469C93.1758 20.0412 93.0508 19.4489 93.0508 18.7699C93.0508 18.0994 93.1758 17.5085 93.4258 16.9972C93.6786 16.4858 94.0309 16.0866 94.4826 15.7997C94.9371 15.5128 95.4684 15.3693 96.0763 15.3693C96.4457 15.3693 96.8036 15.4304 97.1502 15.5526C97.4968 15.6747 97.8079 15.8665 98.0835 16.1278C98.359 16.3892 98.5763 16.7287 98.7354 17.1463C98.8945 17.5611 98.9741 18.0653 98.9741 18.6591V19.1108H93.771V18.1562H97.7255C97.7255 17.821 97.6573 17.5241 97.521 17.2656C97.3846 17.0043 97.1928 16.7983 96.9457 16.6477C96.7013 16.4972 96.4144 16.4219 96.0849 16.4219C95.7269 16.4219 95.4144 16.5099 95.1474 16.6861C94.8832 16.8594 94.6786 17.0866 94.5337 17.3679C94.3917 17.6463 94.3207 17.9489 94.3207 18.2756V19.0213C94.3207 19.4588 94.3974 19.831 94.5508 20.1378C94.707 20.4446 94.9244 20.679 95.2028 20.8409C95.4812 21 95.8065 21.0795 96.1786 21.0795C96.4201 21.0795 96.6403 21.0455 96.8391 20.9773C97.038 20.9062 97.2099 20.8011 97.3548 20.6619C97.4996 20.5227 97.6104 20.3509 97.6871 20.1463L98.8931 20.3636C98.7965 20.7187 98.6232 21.0298 98.3732 21.2969C98.1261 21.5611 97.815 21.767 97.44 21.9148C97.0678 22.0597 96.6431 22.1321 96.1658 22.1321ZM103.443 15.4545V16.4773H99.8679V15.4545H103.443ZM100.827 13.8864H102.101V20.0781C102.101 20.3253 102.138 20.5114 102.212 20.6364C102.286 20.7585 102.381 20.8423 102.497 20.8878C102.616 20.9304 102.746 20.9517 102.885 20.9517C102.987 20.9517 103.077 20.9446 103.153 20.9304C103.23 20.9162 103.29 20.9048 103.332 20.8963L103.562 21.9489C103.489 21.9773 103.384 22.0057 103.247 22.0341C103.111 22.0653 102.94 22.0824 102.736 22.0852C102.401 22.0909 102.088 22.0312 101.798 21.9062C101.509 21.7812 101.274 21.5881 101.095 21.3267C100.916 21.0653 100.827 20.7372 100.827 20.3423V13.8864ZM108.028 22V15.4545H109.303V22H108.028ZM108.672 14.4446C108.45 14.4446 108.26 14.3707 108.101 14.223C107.945 14.0724 107.866 13.8935 107.866 13.6861C107.866 13.4759 107.945 13.2969 108.101 13.1491C108.26 12.9986 108.45 12.9233 108.672 12.9233C108.893 12.9233 109.082 12.9986 109.239 13.1491C109.398 13.2969 109.477 13.4759 109.477 13.6861C109.477 13.8935 109.398 14.0724 109.239 14.223C109.082 14.3707 108.893 14.4446 108.672 14.4446ZM114.072 15.4545V16.4773H110.497V15.4545H114.072ZM111.456 13.8864H112.73V20.0781C112.73 20.3253 112.767 20.5114 112.841 20.6364C112.914 20.7585 113.01 20.8423 113.126 20.8878C113.245 20.9304 113.375 20.9517 113.514 20.9517C113.616 20.9517 113.706 20.9446 113.782 20.9304C113.859 20.9162 113.919 20.9048 113.961 20.8963L114.191 21.9489C114.118 21.9773 114.012 22.0057 113.876 22.0341C113.74 22.0653 113.569 22.0824 113.365 22.0852C113.029 22.0909 112.717 22.0312 112.427 21.9062C112.137 21.7812 111.903 21.5881 111.724 21.3267C111.545 21.0653 111.456 20.7372 111.456 20.3423V13.8864ZM126.341 17.6364C126.341 18.5682 126.17 19.3693 125.829 20.0398C125.488 20.7074 125.021 21.2216 124.427 21.5824C123.836 21.9403 123.164 22.1193 122.412 22.1193C121.656 22.1193 120.981 21.9403 120.387 21.5824C119.797 21.2216 119.331 20.706 118.99 20.0355C118.649 19.3651 118.478 18.5653 118.478 17.6364C118.478 16.7045 118.649 15.9048 118.99 15.2372C119.331 14.5668 119.797 14.0526 120.387 13.6946C120.981 13.3338 121.656 13.1534 122.412 13.1534C123.164 13.1534 123.836 13.3338 124.427 13.6946C125.021 14.0526 125.488 14.5668 125.829 15.2372C126.17 15.9048 126.341 16.7045 126.341 17.6364ZM125.037 17.6364C125.037 16.9261 124.922 16.3281 124.691 15.8423C124.464 15.3537 124.152 14.9844 123.754 14.7344C123.359 14.4815 122.912 14.3551 122.412 14.3551C121.909 14.3551 121.46 14.4815 121.065 14.7344C120.67 14.9844 120.358 15.3537 120.127 15.8423C119.9 16.3281 119.787 16.9261 119.787 17.6364C119.787 18.3466 119.9 18.946 120.127 19.4347C120.358 19.9205 120.67 20.2898 121.065 20.5426C121.46 20.7926 121.909 20.9176 122.412 20.9176C122.912 20.9176 123.359 20.7926 123.754 20.5426C124.152 20.2898 124.464 19.9205 124.691 19.4347C124.922 18.946 125.037 18.3466 125.037 17.6364ZM129.154 18.1136V22H127.88V15.4545H129.103V16.5199H129.184C129.335 16.1733 129.57 15.8949 129.891 15.6847C130.215 15.4744 130.623 15.3693 131.114 15.3693C131.56 15.3693 131.951 15.4631 132.286 15.6506C132.621 15.8352 132.881 16.1108 133.066 16.4773C133.251 16.8437 133.343 17.2969 133.343 17.8366V22H132.069V17.9901C132.069 17.5156 131.945 17.1449 131.698 16.8778C131.451 16.608 131.112 16.473 130.68 16.473C130.384 16.473 130.121 16.5369 129.891 16.6648C129.664 16.7926 129.484 16.9801 129.35 17.2273C129.219 17.4716 129.154 17.767 129.154 18.1136Z" fill="black"/>
<path d="M86.142 46H83.892L87.9886 34.3636H90.5909L94.6932 46H92.4432L89.3352 36.75H89.2443L86.142 46ZM86.2159 41.4375H92.3523V43.1307H86.2159V41.4375ZM96.1349 49.2727V37.2727H98.1577V38.7159H98.277C98.383 38.5038 98.5327 38.2784 98.7259 38.0398C98.919 37.7973 99.1804 37.5909 99.5099 37.4205C99.8395 37.2462 100.26 37.1591 100.771 37.1591C101.446 37.1591 102.054 37.3314 102.595 37.6761C103.141 38.017 103.572 38.5227 103.891 39.1932C104.213 39.8598 104.374 40.678 104.374 41.6477C104.374 42.6061 104.216 43.4205 103.902 44.0909C103.588 44.7614 103.16 45.2727 102.618 45.625C102.076 45.9773 101.463 46.1534 100.777 46.1534C100.277 46.1534 99.8622 46.0701 99.5327 45.9034C99.2031 45.7367 98.938 45.536 98.7372 45.3011C98.5402 45.0625 98.3868 44.8371 98.277 44.625H98.1918V49.2727H96.1349ZM98.152 41.6364C98.152 42.2008 98.2315 42.6951 98.3906 43.1193C98.5535 43.5436 98.7865 43.875 99.0895 44.1136C99.3963 44.3485 99.7675 44.4659 100.203 44.4659C100.658 44.4659 101.038 44.3447 101.345 44.1023C101.652 43.8561 101.883 43.5208 102.038 43.0966C102.197 42.6686 102.277 42.1818 102.277 41.6364C102.277 41.0947 102.199 40.6136 102.044 40.1932C101.889 39.7727 101.658 39.4432 101.351 39.2045C101.044 38.9659 100.661 38.8466 100.203 38.8466C99.7637 38.8466 99.3906 38.9621 99.0838 39.1932C98.777 39.4242 98.544 39.7481 98.3849 40.1648C98.2296 40.5814 98.152 41.072 98.152 41.6364ZM106.135 49.2727V37.2727H108.158V38.7159H108.277C108.383 38.5038 108.533 38.2784 108.726 38.0398C108.919 37.7973 109.18 37.5909 109.51 37.4205C109.839 37.2462 110.26 37.1591 110.771 37.1591C111.446 37.1591 112.054 37.3314 112.595 37.6761C113.141 38.017 113.572 38.5227 113.891 39.1932C114.213 39.8598 114.374 40.678 114.374 41.6477C114.374 42.6061 114.216 43.4205 113.902 44.0909C113.588 44.7614 113.16 45.2727 112.618 45.625C112.076 45.9773 111.463 46.1534 110.777 46.1534C110.277 46.1534 109.862 46.0701 109.533 45.9034C109.203 45.7367 108.938 45.536 108.737 45.3011C108.54 45.0625 108.387 44.8371 108.277 44.625H108.192V49.2727H106.135ZM108.152 41.6364C108.152 42.2008 108.232 42.6951 108.391 43.1193C108.554 43.5436 108.786 43.875 109.089 44.1136C109.396 44.3485 109.768 44.4659 110.203 44.4659C110.658 44.4659 111.038 44.3447 111.345 44.1023C111.652 43.8561 111.883 43.5208 112.038 43.0966C112.197 42.6686 112.277 42.1818 112.277 41.6364C112.277 41.0947 112.199 40.6136 112.044 40.1932C111.889 39.7727 111.658 39.4432 111.351 39.2045C111.044 38.9659 110.661 38.8466 110.203 38.8466C109.764 38.8466 109.391 38.9621 109.084 39.1932C108.777 39.4242 108.544 39.7481 108.385 40.1648C108.23 40.5814 108.152 41.072 108.152 41.6364ZM118.192 34.3636V46H116.135V34.3636H118.192ZM124.17 46.1705C123.295 46.1705 122.54 45.9886 121.903 45.625C121.271 45.2576 120.784 44.7386 120.443 44.0682C120.102 43.3939 119.932 42.6004 119.932 41.6875C119.932 40.7898 120.102 40.0019 120.443 39.3239C120.788 38.642 121.269 38.1117 121.886 37.733C122.504 37.3504 123.229 37.1591 124.062 37.1591C124.6 37.1591 125.108 37.2462 125.585 37.4205C126.066 37.5909 126.491 37.8561 126.858 38.2159C127.229 38.5758 127.521 39.0341 127.733 39.5909C127.945 40.1439 128.051 40.803 128.051 41.5682V42.1989H120.898V40.8125H126.08C126.076 40.4186 125.991 40.0682 125.824 39.7614C125.657 39.4508 125.424 39.2064 125.125 39.0284C124.83 38.8504 124.485 38.7614 124.091 38.7614C123.67 38.7614 123.301 38.8636 122.983 39.0682C122.665 39.2689 122.417 39.5341 122.239 39.8636C122.064 40.1894 121.975 40.5473 121.972 40.9375V42.1477C121.972 42.6553 122.064 43.0909 122.25 43.4545C122.436 43.8144 122.695 44.0909 123.028 44.2841C123.362 44.4735 123.752 44.5682 124.199 44.5682C124.498 44.5682 124.769 44.5265 125.011 44.4432C125.254 44.3561 125.464 44.2292 125.642 44.0625C125.82 43.8958 125.955 43.6894 126.045 43.4432L127.966 43.6591C127.845 44.1667 127.614 44.6098 127.273 44.9886C126.936 45.3636 126.504 45.6553 125.977 45.8636C125.451 46.0682 124.848 46.1705 124.17 46.1705ZM140.175 37.5625C140.122 37.0663 139.898 36.6799 139.504 36.4034C139.114 36.1269 138.607 35.9886 137.982 35.9886C137.542 35.9886 137.165 36.0549 136.851 36.1875C136.536 36.3201 136.296 36.5 136.129 36.7273C135.963 36.9545 135.877 37.214 135.874 37.5057C135.874 37.7481 135.929 37.9583 136.038 38.1364C136.152 38.3144 136.305 38.4659 136.499 38.5909C136.692 38.7121 136.906 38.8144 137.141 38.8977C137.375 38.9811 137.612 39.0511 137.851 39.108L138.942 39.3807C139.381 39.483 139.804 39.6212 140.209 39.7955C140.618 39.9697 140.983 40.1894 141.305 40.4545C141.631 40.7197 141.889 41.0398 142.078 41.4148C142.268 41.7898 142.362 42.2292 142.362 42.733C142.362 43.4148 142.188 44.0152 141.839 44.5341C141.491 45.0492 140.987 45.4527 140.328 45.7443C139.673 46.0322 138.879 46.1761 137.947 46.1761C137.042 46.1761 136.256 46.036 135.589 45.7557C134.927 45.4754 134.408 45.0663 134.033 44.5284C133.661 43.9905 133.461 43.3352 133.43 42.5625H135.504C135.535 42.9678 135.66 43.3049 135.879 43.5739C136.099 43.8428 136.385 44.0436 136.737 44.1761C137.093 44.3087 137.491 44.375 137.93 44.375C138.389 44.375 138.79 44.3068 139.135 44.1705C139.483 44.0303 139.756 43.8371 139.953 43.5909C140.15 43.3409 140.25 43.0492 140.254 42.7159C140.25 42.4129 140.161 42.1629 139.987 41.9659C139.813 41.7652 139.569 41.5985 139.254 41.4659C138.944 41.3295 138.58 41.2083 138.163 41.1023L136.839 40.7614C135.881 40.5152 135.124 40.142 134.567 39.642C134.014 39.1383 133.737 38.4697 133.737 37.6364C133.737 36.9508 133.923 36.3504 134.294 35.8352C134.669 35.3201 135.179 34.9205 135.822 34.6364C136.466 34.3485 137.196 34.2045 138.01 34.2045C138.836 34.2045 139.559 34.3485 140.18 34.6364C140.805 34.9205 141.296 35.3163 141.652 35.8239C142.008 36.3277 142.192 36.9072 142.203 37.5625H140.175ZM148.509 37.2727V38.8636H143.491V37.2727H148.509ZM144.73 35.1818H146.787V43.375C146.787 43.6515 146.829 43.8636 146.912 44.0114C146.999 44.1553 147.113 44.2538 147.253 44.3068C147.393 44.3598 147.548 44.3864 147.719 44.3864C147.848 44.3864 147.965 44.3769 148.071 44.358C148.181 44.339 148.264 44.322 148.321 44.3068L148.668 45.9148C148.558 45.9527 148.401 45.9943 148.196 46.0398C147.995 46.0852 147.749 46.1117 147.457 46.1193C146.942 46.1345 146.478 46.0568 146.065 45.8864C145.652 45.7121 145.325 45.4432 145.082 45.0795C144.844 44.7159 144.726 44.2614 144.73 43.7159V35.1818ZM153.942 46.1705C153.089 46.1705 152.351 45.983 151.726 45.608C151.101 45.233 150.616 44.7083 150.271 44.0341C149.93 43.3598 149.76 42.572 149.76 41.6705C149.76 40.7689 149.93 39.9792 150.271 39.3011C150.616 38.6231 151.101 38.0966 151.726 37.7216C152.351 37.3466 153.089 37.1591 153.942 37.1591C154.794 37.1591 155.533 37.3466 156.158 37.7216C156.783 38.0966 157.266 38.6231 157.607 39.3011C157.951 39.9792 158.124 40.7689 158.124 41.6705C158.124 42.572 157.951 43.3598 157.607 44.0341C157.266 44.7083 156.783 45.233 156.158 45.608C155.533 45.983 154.794 46.1705 153.942 46.1705ZM153.953 44.5227C154.415 44.5227 154.802 44.3958 155.112 44.142C155.423 43.8845 155.654 43.5398 155.805 43.108C155.961 42.6761 156.038 42.1951 156.038 41.6648C156.038 41.1307 155.961 40.6477 155.805 40.2159C155.654 39.7803 155.423 39.4337 155.112 39.1761C154.802 38.9186 154.415 38.7898 153.953 38.7898C153.48 38.7898 153.086 38.9186 152.771 39.1761C152.461 39.4337 152.228 39.7803 152.072 40.2159C151.921 40.6477 151.845 41.1307 151.845 41.6648C151.845 42.1951 151.921 42.6761 152.072 43.108C152.228 43.5398 152.461 43.8845 152.771 44.142C153.086 44.3958 153.48 44.5227 153.953 44.5227ZM159.869 46V37.2727H161.864V38.7273H161.955C162.114 38.2235 162.386 37.8352 162.773 37.5625C163.163 37.286 163.608 37.1477 164.108 37.1477C164.222 37.1477 164.348 37.1534 164.489 37.1648C164.633 37.1723 164.752 37.1856 164.847 37.2045V39.0966C164.759 39.0663 164.621 39.0398 164.432 39.017C164.246 38.9905 164.066 38.9773 163.892 38.9773C163.517 38.9773 163.18 39.0587 162.881 39.2216C162.585 39.3807 162.352 39.6023 162.182 39.8864C162.011 40.1705 161.926 40.4981 161.926 40.8693V46H159.869ZM169.717 46.1705C168.842 46.1705 168.087 45.9886 167.45 45.625C166.818 45.2576 166.331 44.7386 165.99 44.0682C165.649 43.3939 165.479 42.6004 165.479 41.6875C165.479 40.7898 165.649 40.0019 165.99 39.3239C166.335 38.642 166.816 38.1117 167.433 37.733C168.051 37.3504 168.776 37.1591 169.609 37.1591C170.147 37.1591 170.655 37.2462 171.132 37.4205C171.613 37.5909 172.037 37.8561 172.405 38.2159C172.776 38.5758 173.068 39.0341 173.28 39.5909C173.492 40.1439 173.598 40.803 173.598 41.5682V42.1989H166.445V40.8125H171.626C171.623 40.4186 171.537 40.0682 171.371 39.7614C171.204 39.4508 170.971 39.2064 170.672 39.0284C170.376 38.8504 170.032 38.7614 169.638 38.7614C169.217 38.7614 168.848 38.8636 168.53 39.0682C168.212 39.2689 167.964 39.5341 167.786 39.8636C167.611 40.1894 167.522 40.5473 167.518 40.9375V42.1477C167.518 42.6553 167.611 43.0909 167.797 43.4545C167.982 43.8144 168.242 44.0909 168.575 44.2841C168.909 44.4735 169.299 44.5682 169.746 44.5682C170.045 44.5682 170.316 44.5265 170.558 44.4432C170.801 44.3561 171.011 44.2292 171.189 44.0625C171.367 43.8958 171.501 43.6894 171.592 43.4432L173.513 43.6591C173.392 44.1667 173.161 44.6098 172.82 44.9886C172.482 45.3636 172.051 45.6553 171.524 45.8636C170.998 46.0682 170.395 46.1705 169.717 46.1705Z" fill="black"/>
</svg>
