<svg width="2357" height="6591" viewBox="0 0 2357 6591" fill="none" xmlns="http://www.w3.org/2000/svg">
<g clip-path="url(#clip0_352_1411)">
<g filter="url(#filter0_f_352_1411)">
<circle cx="83" cy="83" r="83" transform="matrix(-1 0 0 1 1761 5227)" fill="#298BE2"/>
</g>
<g filter="url(#filter1_f_352_1411)">
<circle cx="93" cy="93" r="93" transform="matrix(-1 0 0 1 485 5233)" fill="#298BE2"/>
</g>
<g filter="url(#filter2_f_352_1411)">
<circle cx="102" cy="102" r="102" transform="matrix(-1 0 0 1 494 5994)" fill="#298BE2"/>
</g>
<g filter="url(#filter3_f_352_1411)">
<circle cx="138" cy="138" r="138" transform="matrix(-1 0 0 1 2052 5906)" fill="#298BE2"/>
</g>
<g filter="url(#filter4_f_352_1411)">
<circle cx="83" cy="83" r="83" transform="matrix(-1 0 0 1 1777 1928)" fill="#298BE2"/>
</g>
<g filter="url(#filter5_f_352_1411)">
<circle cx="93" cy="93" r="93" transform="matrix(-1 0 0 1 501 1934)" fill="#298BE2"/>
</g>
<g filter="url(#filter6_f_352_1411)">
<circle cx="102" cy="102" r="102" transform="matrix(-1 0 0 1 510 2695)" fill="#298BE2"/>
</g>
<g filter="url(#filter7_f_352_1411)">
<circle cx="138" cy="138" r="138" transform="matrix(-1 0 0 1 2068 2607)" fill="#298BE2"/>
</g>
<g filter="url(#filter8_f_352_1411)">
<circle cx="83" cy="83" r="83" transform="matrix(-1 0 0 1 1761 283)" fill="#298BE2"/>
</g>
<g filter="url(#filter9_f_352_1411)">
<circle cx="93" cy="93" r="93" transform="matrix(-1 0 0 1 485 289)" fill="#298BE2"/>
</g>
<g filter="url(#filter10_f_352_1411)">
<circle cx="102" cy="102" r="102" transform="matrix(-1 0 0 1 494 1050)" fill="#298BE2"/>
</g>
<g filter="url(#filter11_f_352_1411)">
<circle cx="138" cy="138" r="138" transform="matrix(-1 0 0 1 2052 962)" fill="#298BE2"/>
</g>
<g filter="url(#filter12_f_352_1411)">
<circle cx="83" cy="83" r="83" transform="matrix(-1 0 0 1 1761 3843)" fill="#298BE2"/>
</g>
<g filter="url(#filter13_f_352_1411)">
<circle cx="93" cy="93" r="93" transform="matrix(-1 0 0 1 485 3849)" fill="#298BE2"/>
</g>
<g filter="url(#filter14_f_352_1411)">
<circle cx="102" cy="102" r="102" transform="matrix(-1 0 0 1 494 4610)" fill="#298BE2"/>
</g>
<g filter="url(#filter15_f_352_1411)">
<circle cx="138" cy="138" r="138" transform="matrix(-1 0 0 1 2052 4522)" fill="#298BE2"/>
</g>
</g>
<defs>
<filter id="filter0_f_352_1411" x="1301" y="4933" width="754" height="754" filterUnits="userSpaceOnUse" color-interpolation-filters="sRGB">
<feFlood flood-opacity="0" result="BackgroundImageFix"/>
<feBlend mode="normal" in="SourceGraphic" in2="BackgroundImageFix" result="shape"/>
<feGaussianBlur stdDeviation="147" result="effect1_foregroundBlur_352_1411"/>
</filter>
<filter id="filter1_f_352_1411" x="5" y="4939" width="774" height="774" filterUnits="userSpaceOnUse" color-interpolation-filters="sRGB">
<feFlood flood-opacity="0" result="BackgroundImageFix"/>
<feBlend mode="normal" in="SourceGraphic" in2="BackgroundImageFix" result="shape"/>
<feGaussianBlur stdDeviation="147" result="effect1_foregroundBlur_352_1411"/>
</filter>
<filter id="filter2_f_352_1411" x="-4" y="5700" width="792" height="792" filterUnits="userSpaceOnUse" color-interpolation-filters="sRGB">
<feFlood flood-opacity="0" result="BackgroundImageFix"/>
<feBlend mode="normal" in="SourceGraphic" in2="BackgroundImageFix" result="shape"/>
<feGaussianBlur stdDeviation="147" result="effect1_foregroundBlur_352_1411"/>
</filter>
<filter id="filter3_f_352_1411" x="1482" y="5612" width="864" height="864" filterUnits="userSpaceOnUse" color-interpolation-filters="sRGB">
<feFlood flood-opacity="0" result="BackgroundImageFix"/>
<feBlend mode="normal" in="SourceGraphic" in2="BackgroundImageFix" result="shape"/>
<feGaussianBlur stdDeviation="147" result="effect1_foregroundBlur_352_1411"/>
</filter>
<filter id="filter4_f_352_1411" x="1317" y="1634" width="754" height="754" filterUnits="userSpaceOnUse" color-interpolation-filters="sRGB">
<feFlood flood-opacity="0" result="BackgroundImageFix"/>
<feBlend mode="normal" in="SourceGraphic" in2="BackgroundImageFix" result="shape"/>
<feGaussianBlur stdDeviation="147" result="effect1_foregroundBlur_352_1411"/>
</filter>
<filter id="filter5_f_352_1411" x="21" y="1640" width="774" height="774" filterUnits="userSpaceOnUse" color-interpolation-filters="sRGB">
<feFlood flood-opacity="0" result="BackgroundImageFix"/>
<feBlend mode="normal" in="SourceGraphic" in2="BackgroundImageFix" result="shape"/>
<feGaussianBlur stdDeviation="147" result="effect1_foregroundBlur_352_1411"/>
</filter>
<filter id="filter6_f_352_1411" x="12" y="2401" width="792" height="792" filterUnits="userSpaceOnUse" color-interpolation-filters="sRGB">
<feFlood flood-opacity="0" result="BackgroundImageFix"/>
<feBlend mode="normal" in="SourceGraphic" in2="BackgroundImageFix" result="shape"/>
<feGaussianBlur stdDeviation="147" result="effect1_foregroundBlur_352_1411"/>
</filter>
<filter id="filter7_f_352_1411" x="1498" y="2313" width="864" height="864" filterUnits="userSpaceOnUse" color-interpolation-filters="sRGB">
<feFlood flood-opacity="0" result="BackgroundImageFix"/>
<feBlend mode="normal" in="SourceGraphic" in2="BackgroundImageFix" result="shape"/>
<feGaussianBlur stdDeviation="147" result="effect1_foregroundBlur_352_1411"/>
</filter>
<filter id="filter8_f_352_1411" x="1301" y="-11" width="754" height="754" filterUnits="userSpaceOnUse" color-interpolation-filters="sRGB">
<feFlood flood-opacity="0" result="BackgroundImageFix"/>
<feBlend mode="normal" in="SourceGraphic" in2="BackgroundImageFix" result="shape"/>
<feGaussianBlur stdDeviation="147" result="effect1_foregroundBlur_352_1411"/>
</filter>
<filter id="filter9_f_352_1411" x="5" y="-5" width="774" height="774" filterUnits="userSpaceOnUse" color-interpolation-filters="sRGB">
<feFlood flood-opacity="0" result="BackgroundImageFix"/>
<feBlend mode="normal" in="SourceGraphic" in2="BackgroundImageFix" result="shape"/>
<feGaussianBlur stdDeviation="147" result="effect1_foregroundBlur_352_1411"/>
</filter>
<filter id="filter10_f_352_1411" x="-4" y="756" width="792" height="792" filterUnits="userSpaceOnUse" color-interpolation-filters="sRGB">
<feFlood flood-opacity="0" result="BackgroundImageFix"/>
<feBlend mode="normal" in="SourceGraphic" in2="BackgroundImageFix" result="shape"/>
<feGaussianBlur stdDeviation="147" result="effect1_foregroundBlur_352_1411"/>
</filter>
<filter id="filter11_f_352_1411" x="1482" y="668" width="864" height="864" filterUnits="userSpaceOnUse" color-interpolation-filters="sRGB">
<feFlood flood-opacity="0" result="BackgroundImageFix"/>
<feBlend mode="normal" in="SourceGraphic" in2="BackgroundImageFix" result="shape"/>
<feGaussianBlur stdDeviation="147" result="effect1_foregroundBlur_352_1411"/>
</filter>
<filter id="filter12_f_352_1411" x="1301" y="3549" width="754" height="754" filterUnits="userSpaceOnUse" color-interpolation-filters="sRGB">
<feFlood flood-opacity="0" result="BackgroundImageFix"/>
<feBlend mode="normal" in="SourceGraphic" in2="BackgroundImageFix" result="shape"/>
<feGaussianBlur stdDeviation="147" result="effect1_foregroundBlur_352_1411"/>
</filter>
<filter id="filter13_f_352_1411" x="5" y="3555" width="774" height="774" filterUnits="userSpaceOnUse" color-interpolation-filters="sRGB">
<feFlood flood-opacity="0" result="BackgroundImageFix"/>
<feBlend mode="normal" in="SourceGraphic" in2="BackgroundImageFix" result="shape"/>
<feGaussianBlur stdDeviation="147" result="effect1_foregroundBlur_352_1411"/>
</filter>
<filter id="filter14_f_352_1411" x="-4" y="4316" width="792" height="792" filterUnits="userSpaceOnUse" color-interpolation-filters="sRGB">
<feFlood flood-opacity="0" result="BackgroundImageFix"/>
<feBlend mode="normal" in="SourceGraphic" in2="BackgroundImageFix" result="shape"/>
<feGaussianBlur stdDeviation="147" result="effect1_foregroundBlur_352_1411"/>
</filter>
<filter id="filter15_f_352_1411" x="1482" y="4228" width="864" height="864" filterUnits="userSpaceOnUse" color-interpolation-filters="sRGB">
<feFlood flood-opacity="0" result="BackgroundImageFix"/>
<feBlend mode="normal" in="SourceGraphic" in2="BackgroundImageFix" result="shape"/>
<feGaussianBlur stdDeviation="147" result="effect1_foregroundBlur_352_1411"/>
</filter>
<clipPath id="clip0_352_1411">
<rect width="2357" height="6591" fill="white"/>
</clipPath>
</defs>
</svg>
