<?xml version="1.0" encoding="utf-8"?>
<!-- Generator: Adobe Illustrator 26.1.0, SVG Export Plug-In . SVG Version: 6.00 Build 0)  -->
<svg version="1.1" id="Layer_1" xmlns="http://www.w3.org/2000/svg" xmlns:xlink="http://www.w3.org/1999/xlink" x="0px" y="0px"
	 viewBox="0 0 1000 1000" style="enable-background:new 0 0 1000 1000;" xml:space="preserve">
<style type="text/css">
	.st0{fill:#32416B;}
	.st1{fill:url(#SVGID_1_);}
	.st2{fill:url(#SVGID_00000165213150692532809630000013707772877642815656_);}
	.st3{fill:url(#SVGID_00000113336519445497600440000006177511099979610012_);}
	.st4{fill:url(#SVGID_00000115509813518191060800000001005909150366784387_);}
	.st5{fill:url(#SVGID_00000105396669003743490150000011377749250223810441_);}
	.st6{fill:url(#SVGID_00000011740572656884600340000014922451221613868700_);}
	.st7{fill:url(#SVGID_00000069377455340790857720000009937239072193664447_);}
	.st8{fill:url(#SVGID_00000113347441683281853830000012799824766170098599_);}
	.st9{fill:url(#SVGID_00000144329546968137547300000006669002833073067934_);}
	.st10{fill:url(#SVGID_00000075128211113511538410000018382016209172539791_);}
	.st11{fill:url(#SVGID_00000048496039423761554700000012131406100932307339_);}
	.st12{fill:url(#SVGID_00000165926386843629909480000000011899540480197559_);}
	.st13{fill:url(#SVGID_00000034061838632925951460000015203123848613536646_);}
	.st14{fill:url(#SVGID_00000093896496047411160720000009982176954034741132_);}
	.st15{fill:url(#SVGID_00000168822510720188732600000010808778695845141645_);}
	.st16{fill:url(#SVGID_00000015341558131901590050000007757304838553771649_);}
	.st17{fill:url(#SVGID_00000017512102476316240490000012075510889719359163_);}
	.st18{fill:url(#SVGID_00000069392270554874060860000016269086881595790982_);}
	.st19{fill:url(#SVGID_00000071541617040868282750000008827170783769404566_);}
	.st20{fill:url(#SVGID_00000043457416722668423700000016663523855474308738_);}
	.st21{fill:url(#SVGID_00000032609095859428114910000014053499784778679447_);}
	.st22{fill:url(#SVGID_00000011713049170862949100000015628834565838495908_);}
	.st23{fill:url(#SVGID_00000166676141626159417200000017592370112512352915_);}
	.st24{fill:url(#SVGID_00000176016887985712281270000008385660771878364322_);}
	.st25{fill:#00073D;}
	.st26{fill:#FFFFFF;}
	.st27{fill:url(#SVGID_00000036946836416391137790000012553296244553280443_);}
	.st28{fill:url(#SVGID_00000002364919161968012140000013700511116120761729_);}
	.st29{fill:url(#SVGID_00000062189227059830403940000009610517130895823253_);}
	.st30{fill:url(#SVGID_00000002348590274205510670000015889027701102086062_);}
	.st31{fill:url(#SVGID_00000014613151663817430440000008180562739688673705_);}
	.st32{fill:url(#SVGID_00000059279212276263548510000012317426498611812024_);}
	.st33{fill:url(#SVGID_00000106856471074167220720000017960245286214550961_);}
	.st34{fill:url(#SVGID_00000072277800669410284950000013589587941362527411_);}
	.st35{fill:url(#SVGID_00000136389842176490693870000004595501816419394710_);}
	.st36{fill:url(#SVGID_00000134234612055752175150000013699433227829826992_);}
	.st37{fill:url(#SVGID_00000138558191657745516940000011788542059334048942_);}
	.st38{fill:url(#SVGID_00000124853555461174853460000002075685351799948676_);}
	.st39{fill:url(#SVGID_00000159470966681038696830000002647887069738900111_);}
	.st40{fill:url(#SVGID_00000140699091140153246980000013866228873968735140_);}
	.st41{fill:url(#SVGID_00000090998420544141105080000012811481443017224363_);}
	.st42{fill:url(#SVGID_00000103982229159588914510000016158280436691904424_);}
	.st43{fill:url(#SVGID_00000078757344226861464000000016601310013247134905_);}
	.st44{fill:url(#SVGID_00000037654222352994824030000010967219558291252864_);}
	.st45{fill:url(#SVGID_00000120555882336338217360000011442056856984857767_);}
	.st46{fill:url(#SVGID_00000029727919200126328220000006188084025247478436_);}
	.st47{fill:url(#SVGID_00000159464070415215208500000013584111721571122106_);}
	.st48{fill:url(#SVGID_00000086680689133055910090000003643221443858217624_);}
	.st49{fill:url(#SVGID_00000156561409072058453530000014321209473905922445_);}
	.st50{fill:url(#SVGID_00000082343587189013214730000013185368196253465493_);}
	.st51{fill:url(#SVGID_00000036248764367653114240000003421973230884620941_);}
	.st52{fill:url(#SVGID_00000022531835022876942450000010009685319736658075_);}
	.st53{fill:url(#SVGID_00000124153598251068882260000004494818024161988781_);}
	.st54{fill:url(#SVGID_00000156548531035772517750000014300467349305837230_);}
	.st55{fill:url(#SVGID_00000070100875065011413560000015971950918652581559_);}
	.st56{fill:url(#SVGID_00000121250834094015461010000003248943011973346453_);}
	.st57{fill:url(#SVGID_00000035502751411370033350000002450451865908678800_);}
	.st58{fill:url(#SVGID_00000004537983552744705500000004149857050921522836_);}
	.st59{fill:url(#SVGID_00000140699046033699487300000013430069291931063972_);}
	.st60{fill:url(#SVGID_00000174569829828329470250000011736350832608763070_);}
	.st61{fill:url(#SVGID_00000170241746861527032530000004599927211719959485_);}
	.st62{fill:url(#SVGID_00000008858328984662656250000017075462963090666396_);}
	.st63{fill:url(#SVGID_00000149363427392435094560000007226886586353058968_);}
	.st64{fill:url(#SVGID_00000100350501993481213180000000112270357647180964_);}
	.st65{fill:url(#SVGID_00000176011000714546674690000007533980266228071052_);}
	.st66{fill:url(#SVGID_00000135655352495053269740000007235837332612015501_);}
	.st67{fill:url(#SVGID_00000132783664319361753500000017927755034236914323_);}
	.st68{fill:url(#SVGID_00000112609331308090983400000010439243980208402365_);}
	.st69{fill:url(#SVGID_00000159465245918638152240000013956967939800375476_);}
	.st70{fill:url(#SVGID_00000126286556682623036050000014250905462013366437_);}
	.st71{fill:url(#SVGID_00000125586926307988052240000013450770503042955664_);}
	.st72{fill:url(#SVGID_00000028314687739545265950000015153277551647244189_);}
	.st73{fill:url(#SVGID_00000046302625740354024820000000588296445108565156_);}
	.st74{fill:url(#SVGID_00000168108066774531457320000015643196807998405537_);}
	.st75{fill:url(#SVGID_00000074421480258353453920000001341041091514913179_);}
	.st76{fill:url(#SVGID_00000037681254327973601560000002455807392334018202_);}
	.st77{fill:url(#SVGID_00000030483052310498405550000013638233687864176062_);}
	.st78{fill:url(#SVGID_00000147219308294294821270000003215453494752759727_);}
	.st79{fill:url(#SVGID_00000034783877949330990800000014549714005374398110_);}
	.st80{fill:url(#SVGID_00000024720094597268781280000009225428209764001169_);}
	.st81{fill:url(#SVGID_00000037687304618281632880000006610766710599805844_);}
	.st82{fill:url(#SVGID_00000116194628898453421630000010744484593969990843_);}
	.st83{fill:url(#SVGID_00000053537926796063554880000002536158414989669516_);}
	.st84{fill:url(#SVGID_00000155148108333332268030000012585896300440128397_);}
	.st85{fill:url(#SVGID_00000081628358428379182220000001558660217642214554_);}
	.st86{fill:url(#SVGID_00000149379109075973905210000017106364564115772819_);}
	.st87{fill:url(#SVGID_00000129885860694786255820000008513353003144641191_);}
	.st88{fill:url(#SVGID_00000027593554562137554070000015788121653282331062_);}
	.st89{fill:url(#SVGID_00000165926162618208971540000005380104647653926529_);}
	.st90{fill:url(#SVGID_00000023246261626547169570000004117601874284222138_);}
	.st91{fill:url(#SVGID_00000004506994558245272950000017216109404453703350_);}
	.st92{fill:url(#SVGID_00000155110643977216182110000000861561379799237042_);}
	.st93{fill:url(#SVGID_00000113338002366450563050000014616080594994637443_);}
	.st94{fill:url(#SVGID_00000103973541936598243460000000026001991026740385_);}
	.st95{fill:url(#SVGID_00000116223667916787269930000011145829937634230966_);}
	.st96{fill:url(#SVGID_00000116237480761840448850000010420578528658641335_);}
	.st97{fill:url(#SVGID_00000054265242232407949100000000017003547605758866_);}
	.st98{fill:url(#SVGID_00000142169901659647846630000009738315842111939728_);}
</style>
<g>
	<g>
		<polygon class="st0" points="335.3,526.1 294.1,550.2 253.7,526.9 253.7,483.7 228.1,468.9 228.1,541.6 294.1,579.7 360.1,541.6 
			360.1,492.8 284.2,492.8 		"/>
		<radialGradient id="SVGID_1_" cx="203.59" cy="404.4513" r="118.7337" gradientUnits="userSpaceOnUse">
			<stop  offset="0" style="stop-color:#00FFFF"/>
			<stop  offset="1" style="stop-color:#298BE2"/>
		</radialGradient>
		<polygon class="st1" points="289.2,420.3 228.1,455.5 253.7,470.3 289.2,449.8 		"/>
		
			<radialGradient id="SVGID_00000019664290744831576250000007434892346653595312_" cx="203.59" cy="404.4513" r="118.7337" gradientUnits="userSpaceOnUse">
			<stop  offset="0" style="stop-color:#00FFFF"/>
			<stop  offset="1" style="stop-color:#298BE2"/>
		</radialGradient>
		<polygon style="fill:url(#SVGID_00000019664290744831576250000007434892346653595312_);" points="299,420.3 299,449.8 
			334.5,470.3 360.1,455.5 		"/>
		<g>
			<rect x="462.3" y="492.3" class="st0" width="19.1" height="50.6"/>
			<rect x="376.7" y="455.8" class="st0" width="19.1" height="87.1"/>
			<path class="st0" d="M391.5,473.9h28.3c2.8,0,5.2,1.1,7.2,3.2c2.1,2.2,3.1,4.8,3.1,8c0,3.2-1,5.8-3.1,8.1c-2,2.2-4.4,3.3-7.2,3.3
				h-15.2l27.1,46.5h20.8l-19.2-32.6c4.6-2.3,8.3-5.7,11.1-9.9c3.1-4.7,4.7-9.8,4.7-15.2c0-8-2.9-15-8.6-20.7
				c-5.7-5.7-12.7-8.6-20.8-8.6H381L391.5,473.9z"/>
			<path class="st0" d="M562.8,468.4c-8-8.4-18.1-12.6-30-12.6h-66.5v18.4l66.5,0c7,0,12.7,2.3,17,6.9c4.4,4.6,6.6,10.8,6.6,18.2
				c0,7.5-2.2,13.6-6.6,18.2c-4.3,4.6-10.1,6.9-17,6.9h-15.7v-32.2H498v50.6h34.8c11.9,0,22-4.2,30-12.6c8-8.3,12-18.8,12-31
				C574.8,487.2,570.7,476.8,562.8,468.4z"/>
			
				<radialGradient id="SVGID_00000161597516919158099710000008519666424134078620_" cx="454.8547" cy="447.6728" r="33.2111" gradientUnits="userSpaceOnUse">
				<stop  offset="0" style="stop-color:#00FFFF"/>
				<stop  offset="1" style="stop-color:#298BE2"/>
			</radialGradient>
			
				<rect x="462.3" y="455.8" style="fill:url(#SVGID_00000161597516919158099710000008519666424134078620_);" width="19.1" height="18.4"/>
		</g>
		
			<radialGradient id="SVGID_00000130625381721725212650000007743037389370793092_" cx="366.056" cy="500.6577" r="96.0702" gradientUnits="userSpaceOnUse">
			<stop  offset="0.2222" style="stop-color:#00004F"/>
			<stop  offset="1" style="stop-color:#32416B;stop-opacity:0"/>
		</radialGradient>
		<polygon style="fill:url(#SVGID_00000130625381721725212650000007743037389370793092_);" points="335.3,526.1 360.1,541.6 
			294.1,579.7 294.1,550.2 		"/>
		
			<radialGradient id="SVGID_00000042713180643981918360000004151202342719760030_" cx="410.5539" cy="484.7424" r="70.9369" gradientUnits="userSpaceOnUse">
			<stop  offset="0.2222" style="stop-color:#00004F"/>
			<stop  offset="1" style="stop-color:#32416B;stop-opacity:0"/>
		</radialGradient>
		<path style="fill:url(#SVGID_00000042713180643981918360000004151202342719760030_);" d="M433.4,510.3c0,0-17.9,4.8-12.4,14.2
			c5.5,9.5,10.7,18.4,10.7,18.4h20.8L433.4,510.3z"/>
		
			<radialGradient id="SVGID_00000021113986699901237870000011278041619345298347_" cx="586.2719" cy="442.1933" r="119.5067" gradientUnits="userSpaceOnUse">
			<stop  offset="0.2222" style="stop-color:#00004F"/>
			<stop  offset="1" style="stop-color:#32416B;stop-opacity:0"/>
		</radialGradient>
		<path style="fill:url(#SVGID_00000021113986699901237870000011278041619345298347_);" d="M562.9,530.2c0,0.1-0.1,0.1-0.1,0.2
			c-8,8.4-18.1,12.6-30,12.6h-15.7v-18.4h15.7c7,0,12.7-2.3,17-6.9c4.4-4.6,6.6-10.7,6.6-18.2c0-7.5-2.2-13.6-6.6-18.2
			c-4.3-4.6-10.1-6.9-17-6.9c0,0,12.1-0.3,23.1,6.1C573.6,490.7,577,515.3,562.9,530.2z"/>
	</g>
	<g>
		<path class="st0" d="M624.5,522.9v2.5c0,4.9-1.6,9-4.9,12.1c-3.3,3.1-7.5,4.7-12.8,4.7c-5.6,0-10.2-1.8-13.8-5.4
			c-3.6-3.6-5.4-8-5.4-13.3c0-5.2,1.8-9.6,5.4-13.3c3.6-3.6,8.1-5.4,13.5-5.4c3.4,0,6.4,0.8,9.2,2.3c2.8,1.5,4.9,3.6,6.5,6.2
			l-5.1,2.9c-1-1.7-2.4-3.1-4.3-4.1c-1.9-1-4-1.6-6.3-1.6c-3.8,0-6.9,1.2-9.3,3.7c-2.4,2.5-3.7,5.6-3.7,9.3s1.2,6.8,3.7,9.2
			c2.5,2.4,5.7,3.7,9.7,3.7c3.2,0,5.8-0.7,7.8-2.2c2-1.5,3.3-3.5,3.8-6h-12.1v-5.3H624.5z"/>
		<path class="st0" d="M650,515.8h5.6v25.8H650v-3.7c-2.1,2.9-5.1,4.4-9,4.4c-3.5,0-6.6-1.3-9.1-3.9c-2.5-2.6-3.8-5.8-3.8-9.6
			c0-3.8,1.3-7,3.8-9.6c2.5-2.6,5.5-3.9,9.1-3.9c3.9,0,6.9,1.4,9,4.3V515.8z M636,534.6c1.5,1.6,3.5,2.3,5.8,2.3
			c2.3,0,4.3-0.8,5.8-2.3c1.5-1.6,2.3-3.5,2.3-5.9c0-2.4-0.8-4.3-2.3-5.9c-1.5-1.6-3.5-2.3-5.8-2.3c-2.3,0-4.3,0.8-5.8,2.3
			c-1.5,1.6-2.3,3.5-2.3,5.9C633.7,531.1,634.5,533,636,534.6z"/>
		<path class="st0" d="M690.2,515.1c2.9,0,5.3,0.9,7.1,2.8c1.8,1.9,2.7,4.4,2.7,7.6v16h-5.6V526c0-1.8-0.4-3.2-1.3-4.1
			c-0.9-1-2.1-1.5-3.7-1.5c-1.7,0-3.1,0.6-4.1,1.7c-1,1.1-1.5,2.8-1.5,5.1v14.4h-5.6V526c0-1.8-0.4-3.2-1.3-4.1
			c-0.8-1-2-1.5-3.6-1.5c-1.7,0-3.1,0.6-4.1,1.7c-1.1,1.2-1.6,2.8-1.6,5.1v14.4H662v-25.8h5.6v3.1c1.6-2.5,4.1-3.8,7.4-3.8
			c3.3,0,5.7,1.4,7.3,4.1C684,516.5,686.6,515.1,690.2,515.1z"/>
		<path class="st0" d="M710.3,531.1c0.4,2,1.4,3.5,2.8,4.5c1.5,1,3.3,1.6,5.4,1.6c3,0,5.2-1.1,6.6-3.2l4.6,2.7
			c-2.5,3.7-6.3,5.6-11.3,5.6c-4.2,0-7.6-1.3-10.1-3.8c-2.6-2.6-3.9-5.8-3.9-9.7c0-3.8,1.3-7.1,3.8-9.7c2.5-2.6,5.8-3.9,9.8-3.9
			c3.8,0,6.9,1.3,9.3,4c2.4,2.6,3.6,5.9,3.6,9.6c0,0.6-0.1,1.4-0.2,2.3H710.3z M710.2,526.5h15.1c-0.4-2.1-1.2-3.7-2.6-4.7
			c-1.4-1.1-2.9-1.6-4.8-1.6c-2.1,0-3.8,0.6-5.2,1.7C711.5,523,710.6,524.6,710.2,526.5z"/>
		<path class="st0" d="M741.4,520.1c1.4-3.2,4.1-4.8,7.9-4.8v6c-2.1-0.1-4,0.4-5.6,1.5c-1.6,1.2-2.4,3-2.4,5.7v13h-5.6v-25.8h5.6
			V520.1z"/>
		<path class="st0" d="M757.5,522.9c0,0.8,0.5,1.5,1.4,2c1,0.5,2.1,0.9,3.4,1.4c1.3,0.4,2.7,0.8,4.1,1.3c1.4,0.4,2.6,1.2,3.5,2.4
			c0.9,1.2,1.4,2.6,1.4,4.4c0,2.5-1,4.4-2.9,5.8c-1.9,1.4-4.3,2.1-7.2,2.1c-2.5,0-4.7-0.5-6.5-1.6c-1.8-1.1-3.1-2.5-4-4.4l4.8-2.8
			c0.9,2.5,2.8,3.7,5.7,3.7c2.9,0,4.4-1,4.4-2.9c0-0.8-0.5-1.5-1.4-2c-0.9-0.5-2.1-1-3.4-1.4c-1.3-0.4-2.7-0.8-4.1-1.3
			c-1.4-0.4-2.6-1.2-3.5-2.3c-0.9-1.1-1.4-2.5-1.4-4.2c0-2.4,0.9-4.3,2.7-5.7c1.8-1.4,4-2.2,6.7-2.2c2.1,0,4,0.5,5.7,1.4
			c1.7,0.9,2.9,2.3,3.8,3.9l-4.7,2.6c-0.9-2-2.5-2.9-4.8-2.9c-1.1,0-2,0.2-2.7,0.7C757.9,521.3,757.5,522,757.5,522.9z"/>
	</g>
</g>
</svg>
