<svg width="544" height="160" viewBox="0 0 544 160" fill="none" xmlns="http://www.w3.org/2000/svg">
<path d="M107.2 105.8L66 129.9L25.6 106.6V63.4001L0 48.6001V121.3L66 159.4L132 121.3V72.5001H56.1L107.2 105.8Z" fill="white"/>
<path d="M61.1 0L0 35.2L25.6 50L61.1 29.5V0Z" fill="url(#paint0_radial_1397_10866)"/>
<path d="M70.8999 0V29.5L106.4 50L132 35.2L70.8999 0Z" fill="url(#paint1_radial_1397_10866)"/>
<path d="M253.3 72H234.2V122.6H253.3V72Z" fill="white"/>
<path d="M167.7 35.5H148.6V122.6H167.7V35.5Z" fill="white"/>
<path d="M163.4 53.6002H191.7C194.5 53.6002 196.9 54.7002 198.9 56.8002C201 59.0002 202 61.6002 202 64.8002C202 68.0002 201 70.6002 198.9 72.9002C196.9 75.1002 194.5 76.2002 191.7 76.2002H176.5L203.6 122.7H224.4L205.2 90.1002C209.8 87.8002 213.5 84.4002 216.3 80.2002C219.4 75.5002 221 70.4002 221 65.0002C221 57.0002 218.1 50.0002 212.4 44.3002C206.7 38.6002 199.7 35.7002 191.6 35.7002H152.9L163.4 53.6002Z" fill="white"/>
<path d="M334.7 48.1C326.7 39.7 316.6 35.5 304.7 35.5H238.2V53.9H304.7C311.7 53.9 317.4 56.2 321.7 60.8C326.1 65.4 328.3 71.6 328.3 79C328.3 86.5 326.1 92.6 321.7 97.2C317.4 101.8 311.6 104.1 304.7 104.1H289V71.9H269.9V122.5H304.7C316.6 122.5 326.7 118.3 334.7 109.9C342.7 101.6 346.7 91.1 346.7 78.9C346.7 66.9 342.6 56.5 334.7 48.1Z" fill="white"/>
<path d="M253.3 35.5H234.2V53.9H253.3V35.5Z" fill="url(#paint2_radial_1397_10866)"/>
<path d="M107.2 105.8L132 121.3L66 159.4V129.9L107.2 105.8Z" fill="url(#paint3_radial_1397_10866)"/>
<path d="M205.3 90C205.3 90 187.4 94.8 192.9 104.2C198.4 113.7 203.6 122.6 203.6 122.6H224.4L205.3 90Z" fill="url(#paint4_radial_1397_10866)"/>
<path d="M334.8 109.9C334.8 110 334.7 110 334.7 110.1C326.7 118.5 316.6 122.7 304.7 122.7H289V104.3H304.7C311.7 104.3 317.4 102 321.7 97.3999C326.1 92.7999 328.3 86.6999 328.3 79.1999C328.3 71.6999 326.1 65.5999 321.7 60.9999C317.4 56.3999 311.6 54.0999 304.7 54.0999C304.7 54.0999 316.8 53.7999 327.8 60.1999C345.5 70.3999 348.9 94.9999 334.8 109.9Z" fill="url(#paint5_radial_1397_10866)"/>
<path d="M396.4 102.6V105.1C396.4 110 394.8 114.1 391.5 117.2C388.2 120.3 384 121.9 378.7 121.9C373.1 121.9 368.5 120.1 364.9 116.5C361.3 112.9 359.5 108.5 359.5 103.2C359.5 98 361.3 93.6 364.9 89.9C368.5 86.3 373 84.5 378.4 84.5C381.8 84.5 384.8 85.3 387.6 86.8C390.4 88.3 392.5 90.4 394.1 93L389 95.9C388 94.2 386.6 92.8 384.7 91.8C382.8 90.8 380.7 90.2 378.4 90.2C374.6 90.2 371.5 91.4 369.1 93.9C366.7 96.4 365.4 99.5 365.4 103.2C365.4 106.9 366.6 110 369.1 112.4C371.6 114.8 374.8 116.1 378.8 116.1C382 116.1 384.6 115.4 386.6 113.9C388.6 112.4 389.9 110.4 390.4 107.9H378.3V102.6H396.4Z" fill="white"/>
<path d="M421.9 95.5H427.5V121.3H421.9V117.6C419.8 120.5 416.8 122 412.9 122C409.4 122 406.3 120.7 403.8 118.1C401.3 115.5 400 112.3 400 108.5C400 104.7 401.3 101.5 403.8 98.9C406.3 96.3 409.3 95 412.9 95C416.8 95 419.8 96.4 421.9 99.3V95.5ZM407.9 114.3C409.4 115.9 411.4 116.6 413.7 116.6C416 116.6 418 115.8 419.5 114.3C421 112.7 421.8 110.8 421.8 108.4C421.8 106 421 104.1 419.5 102.5C418 100.9 416 100.2 413.7 100.2C411.4 100.2 409.4 101 407.9 102.5C406.4 104.1 405.6 106 405.6 108.4C405.6 110.8 406.4 112.7 407.9 114.3Z" fill="white"/>
<path d="M462.1 94.7998C465 94.7998 467.4 95.6999 469.2 97.5999C471 99.4999 471.9 102 471.9 105.2V121.2H466.3V105.7C466.3 103.9 465.9 102.5 465 101.6C464.1 100.6 462.9 100.1 461.3 100.1C459.6 100.1 458.2 100.7 457.2 101.8C456.2 102.9 455.7 104.6 455.7 106.9V121.3H450.1V105.7C450.1 103.9 449.7 102.5 448.8 101.6C448 100.6 446.8 100.1 445.2 100.1C443.5 100.1 442.1 100.7 441.1 101.8C440 103 439.5 104.6 439.5 106.9V121.3H433.9V95.4998H439.5V98.5999C441.1 96.0999 443.6 94.7998 446.9 94.7998C450.2 94.7998 452.6 96.1998 454.2 98.8998C455.9 96.1998 458.5 94.7998 462.1 94.7998Z" fill="white"/>
<path d="M482.2 110.8C482.6 112.8 483.6 114.3 485 115.3C486.5 116.3 488.3 116.9 490.4 116.9C493.4 116.9 495.6 115.8 497 113.7L501.6 116.4C499.1 120.1 495.3 122 490.3 122C486.1 122 482.7 120.7 480.2 118.2C477.6 115.6 476.3 112.4 476.3 108.5C476.3 104.7 477.6 101.4 480.1 98.7999C482.6 96.1999 485.9 94.8999 489.9 94.8999C493.7 94.8999 496.8 96.1999 499.2 98.8999C501.6 101.5 502.8 104.8 502.8 108.5C502.8 109.1 502.7 109.9 502.6 110.8H482.2ZM482.1 106.2H497.2C496.8 104.1 496 102.5 494.6 101.5C493.2 100.4 491.7 99.8999 489.8 99.8999C487.7 99.8999 486 100.5 484.6 101.6C483.4 102.7 482.5 104.3 482.1 106.2Z" fill="white"/>
<path d="M513.3 99.8C514.7 96.6 517.4 95 521.2 95V101C519.1 100.9 517.2 101.4 515.6 102.5C514 103.7 513.2 105.5 513.2 108.2V121.2H507.6V95.4H513.2V99.8H513.3Z" fill="white"/>
<path d="M529.4 102.6C529.4 103.4 529.9 104.1 530.8 104.6C531.8 105.1 532.9 105.5 534.2 106C535.5 106.4 536.9 106.8 538.3 107.3C539.7 107.7 540.9 108.5 541.8 109.7C542.7 110.9 543.2 112.3 543.2 114.1C543.2 116.6 542.2 118.5 540.3 119.9C538.4 121.3 536 122 533.1 122C530.6 122 528.4 121.5 526.6 120.4C524.8 119.3 523.5 117.9 522.6 116L527.4 113.2C528.3 115.7 530.2 116.9 533.1 116.9C536 116.9 537.5 115.9 537.5 114C537.5 113.2 537 112.5 536.1 112C535.2 111.5 534 111 532.7 110.6C531.4 110.2 530 109.8 528.6 109.3C527.2 108.9 526 108.1 525.1 107C524.2 105.9 523.7 104.5 523.7 102.8C523.7 100.4 524.6 98.4999 526.4 97.0999C528.2 95.6999 530.4 94.8999 533.1 94.8999C535.2 94.8999 537.1 95.3999 538.8 96.2999C540.5 97.1999 541.7 98.5999 542.6 100.2L537.9 102.8C537 100.8 535.4 99.8999 533.1 99.8999C532 99.8999 531.1 100.1 530.4 100.6C529.8 101 529.4 101.7 529.4 102.6Z" fill="white"/>
<defs>
<radialGradient id="paint0_radial_1397_10866" cx="0" cy="0" r="1" gradientUnits="userSpaceOnUse" gradientTransform="translate(-24.51 -15.8487) scale(118.734 118.734)">
<stop stop-color="#00FFFF"/>
<stop offset="1" stop-color="#298BE2"/>
</radialGradient>
<radialGradient id="paint1_radial_1397_10866" cx="0" cy="0" r="1" gradientUnits="userSpaceOnUse" gradientTransform="translate(-24.5101 -15.8487) scale(118.734 118.734)">
<stop stop-color="#00FFFF"/>
<stop offset="1" stop-color="#298BE2"/>
</radialGradient>
<radialGradient id="paint2_radial_1397_10866" cx="0" cy="0" r="1" gradientUnits="userSpaceOnUse" gradientTransform="translate(226.755 27.3728) scale(33.2111 33.2111)">
<stop stop-color="#00FFFF"/>
<stop offset="1" stop-color="#298BE2"/>
</radialGradient>
<radialGradient id="paint3_radial_1397_10866" cx="0" cy="0" r="1" gradientUnits="userSpaceOnUse" gradientTransform="translate(137.956 80.3575) scale(96.0702 96.0703)">
<stop offset="0.0793651" stop-color="#4D4D4D"/>
<stop offset="1" stop-color="white" stop-opacity="0"/>
</radialGradient>
<radialGradient id="paint4_radial_1397_10866" cx="0" cy="0" r="1" gradientUnits="userSpaceOnUse" gradientTransform="translate(182.454 64.4424) scale(70.9369 70.937)">
<stop offset="0.0793651" stop-color="#4D4D4D"/>
<stop offset="1" stop-color="white" stop-opacity="0"/>
</radialGradient>
<radialGradient id="paint5_radial_1397_10866" cx="0" cy="0" r="1" gradientUnits="userSpaceOnUse" gradientTransform="translate(358.172 21.8932) scale(119.507 119.507)">
<stop offset="0.0793651" stop-color="#4D4D4D"/>
<stop offset="1" stop-color="white" stop-opacity="0"/>
</radialGradient>
</defs>
</svg>
