<svg xmlns="http://www.w3.org/2000/svg" xmlns:xlink="http://www.w3.org/1999/xlink" viewBox="0 0 1041.88 682.43"><defs><linearGradient id="linear-gradient-6" x1="619.99" x2="930.94" y1="842.36" y2="40.08" gradientUnits="userSpaceOnUse"><stop offset="0" stop-color="#298be2"/><stop offset="1" stop-color="#0ff"/></linearGradient><linearGradient xlink:href="#linear-gradient" id="linear-gradient-4" x1="351.24" x2="373.42" y1="359.48" y2="359.48"/><linearGradient id="linear-gradient-5" x1="619.99" x2="930.94" y1="842.36" y2="40.08" gradientUnits="userSpaceOnUse"><stop offset="0" stop-color="#298be2"/><stop offset="1" stop-color="#0ff"/></linearGradient><linearGradient id="linear-gradient" x1="351.24" x2="450.85" y1="303.48" y2="303.48" gradientUnits="userSpaceOnUse"><stop offset="0" stop-color="#0ff"/><stop offset="1" stop-color="#298be2"/></linearGradient><linearGradient xlink:href="#linear-gradient" id="linear-gradient-2" x1="351.24" x2="450.85" y1="359.48" y2="359.48"/><linearGradient xlink:href="#linear-gradient" id="linear-gradient-3" x1="430.3" x2="452.48" y1="303.48" y2="303.48"/><radialGradient xlink:href="#radial-gradient" id="radial-gradient-2" cx="698.3" r="209.24" fx="698.3"/><radialGradient xlink:href="#radial-gradient" id="radial-gradient-3" cx="95.95" cy="229.02" r="127.32" fx="95.95" fy="229.02"/><radialGradient xlink:href="#radial-gradient" id="radial-gradient-4" cx="95.95" cy="229.02" r="127.32" fx="95.95" fy="229.02"/><radialGradient id="radial-gradient-5" cx="270.16" cy="332.18" r="103.02" fx="270.16" fy="332.18" gradientUnits="userSpaceOnUse"><stop offset=".22" stop-color="#00004f"/><stop offset="1" stop-color="#32416b" stop-opacity="0"/></radialGradient><radialGradient id="radial-gradient" cx="667.15" cy="344.31" r="193.46" fx="667.15" fy="344.31" gradientUnits="userSpaceOnUse"><stop offset="0" stop-color="#0ff"/><stop offset="1" stop-color="#298be2"/></radialGradient><filter id="drop-shadow-2" filterUnits="userSpaceOnUse"><feOffset dx="-40"/><feGaussianBlur result="blur-2" stdDeviation="20"/><feFlood flood-color="#000" flood-opacity=".15"/><feComposite in2="blur-2" operator="in"/><feComposite in="SourceGraphic"/></filter><filter id="drop-shadow-1" filterUnits="userSpaceOnUse"><feOffset/><feGaussianBlur result="blur" stdDeviation="24.78"/><feFlood flood-color="#1d69ef" flood-opacity=".25"/><feComposite in2="blur" operator="in"/><feComposite in="SourceGraphic"/></filter><clipPath id="clippath"><path fill="none" d="M965.61 42.89v596.65c0 18.15-14.72 32.88-32.88 32.88H695.71c-18.15 0-32.88-14.73-32.88-32.88V42.89c0-18.16 14.73-32.88 32.88-32.88h237.02c18.16 0 32.88 14.72 32.88 32.88z"/></clipPath><style>.cls-5{fill:none;stroke-linecap:round}.cls-9{fill:#eae6ff}.cls-10{fill:#fdd762}.cls-11{fill:#e3d9f9}.cls-15{fill:#ffd15b}.cls-16{fill:#ffc344}.cls-17{fill:#eef7ff}.cls-18{fill:#feb237}.cls-20{fill:#c2d3f9}.cls-21{fill:#32416b}.cls-22{fill:#dedce2}.cls-24{fill:#0573ce}.cls-25{fill:#1c74b5}.cls-26{fill:#1bb3ec}.cls-28{fill:#6f00ff}.cls-29{fill:#288fe3}.cls-5{stroke:#dedce2;stroke-width:2px}</style></defs><g style="isolation:isolate"><g id="Layer_1" data-name="Layer 1"><g opacity=".4"><rect width="369.74" height="403.37" x="482.28" y="142.62" fill="url(#radial-gradient)" rx="4.26" ry="4.26"/><path d="m581.81 200.78 95.6.11c2.29 0 4.15-1.86 4.16-4.16 0-2.29-1.86-4.15-4.16-4.16l-95.58-.13c-2.29 0-4.15 1.86-4.16 4.16 0 2.29 1.85 4.16 4.14 4.17z" class="cls-10"/><path d="m524.46 200.7 33.24.05c2.29 0 4.15-1.86 4.16-4.16 0-2.29-1.86-4.15-4.16-4.16l-33.24-.05c-2.29 0-4.15 1.86-4.16 4.16 0 2.29 1.86 4.15 4.16 4.16z" class="cls-9"/><path d="m623.93 225.67 34.08.05c2.29 0 4.15-1.86 4.16-4.16 0-2.29-1.86-4.15-4.16-4.16l-34.08-.05c-2.29 0-4.15 1.86-4.16 4.16.01 2.29 1.87 4.14 4.16 4.16z" class="cls-28"/><path d="m572.4 225.59 34.08.05c2.29 0 4.15-1.86 4.16-4.16 0-2.29-1.86-4.15-4.16-4.16l-34.08-.05c-2.29 0-4.15 1.86-4.16 4.16 0 2.29 1.86 4.15 4.16 4.16z" class="cls-9"/><path d="m554.98 250.51 63.17.08c2.29 0 4.15-1.86 4.16-4.16 0-2.29-1.86-4.15-4.16-4.16l-63.17-.08c-2.29 0-4.15 1.86-4.16 4.16 0 2.29 1.86 4.15 4.16 4.16z" class="cls-28"/><path d="m637.26 250.62 21.61.03c2.29 0 4.15-1.86 4.16-4.16 0-2.29-1.86-4.15-4.16-4.16l-21.61-.03c-2.29 0-4.15 1.86-4.16 4.16 0 2.29 1.86 4.15 4.16 4.16z" class="cls-9"/><path d="m523.36 225.53 30.75.05c2.29 0 4.15-1.86 4.16-4.16 0-2.29-1.86-4.15-4.16-4.16l-30.75-.05c-2.29 0-4.15 1.86-4.16 4.16 0 2.29 1.86 4.15 4.16 4.16z" class="cls-10"/><path d="m654.22 283.99 23.27.03c2.29 0 4.15-1.86 4.16-4.16 0-2.29-1.86-4.15-4.16-4.16l-23.27-.03c-2.29 0-4.15 1.86-4.16 4.16 0 2.29 1.86 4.15 4.16 4.16z" class="cls-28"/><path d="m545.34 283.85 92.26.11c2.29 0 4.15-1.86 4.16-4.16 0-2.29-1.86-4.15-4.16-4.16l-92.26-.12c-2.29 0-4.15 1.86-4.16 4.16 0 2.3 1.85 4.17 4.15 4.17z" class="cls-25"/><path d="m636.8 308.89 40.73.06c2.29 0 4.15-1.86 4.16-4.16 0-2.29-1.86-4.15-4.16-4.16l-40.73-.05c-2.29 0-4.15 1.86-4.16 4.16 0 2.29 1.87 4.14 4.16 4.14z" class="cls-10"/><path d="m574.49 333.75 20.78.03c2.29 0 4.15-1.86 4.16-4.16 0-2.29-1.86-4.15-4.16-4.16l-20.78-.03c-2.29 0-4.15 1.86-4.16 4.16 0 2.29 1.86 4.15 4.16 4.16z" class="cls-25"/><path d="m616.05 333.81 62.34.08c2.29 0 4.15-1.86 4.16-4.16 0-2.29-1.86-4.15-4.16-4.16l-62.34-.08c-2.29 0-4.15 1.86-4.16 4.16 0 2.29 1.86 4.15 4.16 4.16zm-88.96-25.06 89.76.11c2.29 0 4.15-1.86 4.15-4.16 0-2.29-1.86-4.15-4.16-4.16l-89.76-.11c-2.29 0-4.15 1.86-4.16 4.16 0 2.29 1.86 4.15 4.16 4.16z" class="cls-28"/><path d="m619.95 361.77-95.6.11a4.155 4.155 0 1 1 0-8.31l95.58-.13c2.29 0 4.15 1.86 4.16 4.16 0 2.29-1.85 4.16-4.14 4.17z" class="cls-10"/><path d="m677.3 361.69-33.24.05c-2.29 0-4.15-1.86-4.16-4.16 0-2.29 1.86-4.15 4.15-4.16l33.25-.05c2.29 0 4.15 1.86 4.16 4.16 0 2.29-1.86 4.15-4.16 4.16z" class="cls-9"/><path d="m577.82 386.65-34.08.05c-2.29 0-4.15-1.86-4.16-4.16 0-2.29 1.86-4.15 4.16-4.16l34.08-.05c2.29 0 4.15 1.86 4.16 4.16-.01 2.29-1.87 4.14-4.16 4.16z" class="cls-28"/><path d="m629.35 386.58-34.08.05c-2.29 0-4.15-1.86-4.16-4.16 0-2.29 1.86-4.15 4.16-4.16l34.08-.05c2.29 0 4.15 1.86 4.16 4.16 0 2.29-1.86 4.15-4.16 4.16z" class="cls-9"/><path d="m646.77 411.5-63.17.09c-2.29 0-4.15-1.86-4.16-4.16 0-2.29 1.86-4.15 4.16-4.16l63.17-.08c2.29 0 4.15 1.86 4.16 4.16 0 2.29-1.86 4.15-4.16 4.15z" class="cls-28"/><path d="m564.49 411.6-21.61.03c-2.29 0-4.15-1.86-4.16-4.16 0-2.29 1.86-4.15 4.16-4.16l21.61-.03c2.29 0 4.15 1.86 4.16 4.16 0 2.29-1.86 4.15-4.16 4.16z" class="cls-9"/><path d="m678.39 386.52-30.75.05c-2.29 0-4.15-1.86-4.16-4.16 0-2.29 1.86-4.15 4.16-4.16l30.75-.05c2.29 0 4.15 1.86 4.16 4.16 0 2.29-1.86 4.15-4.16 4.16z" class="cls-10"/><path d="m547.53 444.97-23.27.03c-2.29 0-4.15-1.86-4.16-4.16 0-2.29 1.86-4.15 4.16-4.16l23.27-.03c2.29 0 4.15 1.86 4.16 4.16 0 2.29-1.86 4.15-4.16 4.16z" class="cls-28"/><path d="m656.41 444.83-92.26.11c-2.29 0-4.15-1.86-4.16-4.16 0-2.29 1.86-4.15 4.16-4.16l92.26-.12c2.29 0 4.15 1.86 4.16 4.16 0 2.3-1.85 4.17-4.15 4.17z" class="cls-25"/><path d="m564.95 469.88-40.73.06c-2.29 0-4.15-1.86-4.16-4.16 0-2.29 1.86-4.15 4.16-4.16l40.73-.05c2.29 0 4.15 1.86 4.16 4.16 0 2.29-1.87 4.14-4.16 4.14z" class="cls-10"/><path d="m627.26 494.73-20.78.03c-2.3 0-4.16-1.86-4.16-4.16 0-2.29 1.86-4.15 4.16-4.16l20.78-.03c2.29 0 4.15 1.86 4.16 4.16 0 2.3-1.86 4.16-4.15 4.16z" class="cls-25"/><path d="m585.7 494.8-62.33.08c-2.29 0-4.15-1.86-4.16-4.16 0-2.29 1.86-4.15 4.16-4.16l62.33-.08c2.29 0 4.15 1.86 4.16 4.16 0 2.29-1.86 4.15-4.16 4.16zm88.96-25.06-89.76.11c-2.29 0-4.15-1.86-4.16-4.16 0-2.29 1.86-4.15 4.16-4.16l89.76-.11c2.29 0 4.15 1.86 4.15 4.16 0 2.29-1.86 4.15-4.15 4.16z" class="cls-28"/></g><g opacity=".6"><rect width="399.89" height="436.26" x="498.35" y="126.17" fill="url(#radial-gradient-2)" rx="4.61" ry="4.61"/><path d="m605.99 189.07 103.39.12a4.49 4.49 0 1 0 0-8.98L606 180.07a4.49 4.49 0 0 0-4.49 4.49c0 2.48 2 4.5 4.48 4.51z" class="cls-10"/><path d="m543.97 188.99 35.96.05a4.49 4.49 0 1 0 0-8.98l-35.96-.05a4.49 4.49 0 1 0 0 8.98z" class="cls-9"/><path d="m651.55 215.99 36.86.05a4.49 4.49 0 1 0 0-8.98l-36.86-.05a4.49 4.49 0 0 0-4.49 4.49 4.509 4.509 0 0 0 4.49 4.49z" class="cls-28"/><path d="m595.82 215.91 36.86.05a4.49 4.49 0 1 0 0-8.98l-36.86-.05a4.49 4.49 0 1 0 0 8.98z" class="cls-9"/><path d="m576.98 242.86 68.32.08a4.49 4.49 0 1 0 0-8.98l-68.32-.08a4.49 4.49 0 1 0 0 8.98z" class="cls-28"/><path d="m665.97 242.98 23.37.03a4.49 4.49 0 1 0 0-8.98l-23.37-.03a4.49 4.49 0 1 0 0 8.98z" class="cls-9"/><path d="m542.78 215.84 33.26.05a4.49 4.49 0 1 0 0-8.98l-33.26-.05a4.49 4.49 0 1 0 0 8.98z" class="cls-10"/><path d="m684.32 279.07 25.17.03a4.49 4.49 0 1 0 0-8.98l-25.17-.03a4.49 4.49 0 1 0 0 8.98z" class="cls-28"/><path d="m566.56 278.92 99.78.12a4.49 4.49 0 1 0 0-8.98l-99.78-.13a4.49 4.49 0 0 0-4.49 4.49c0 2.49 2.01 4.51 4.49 4.51z" class="cls-25"/><path d="m665.47 306 44.05.07a4.49 4.49 0 1 0 0-8.98l-44.05-.05a4.49 4.49 0 0 0-4.49 4.49c0 2.48 2.02 4.48 4.49 4.48z" class="cls-10"/><path d="m598.08 332.89 22.47.03a4.49 4.49 0 1 0 0-8.98l-22.47-.03a4.49 4.49 0 1 0 0 8.98z" class="cls-25"/><path d="m643.03 332.95 67.42.08a4.49 4.49 0 1 0 0-8.98l-67.42-.08a4.49 4.49 0 0 0-4.49 4.49c0 2.48 2.02 4.49 4.49 4.49zm-96.22-27.1 97.08.12c2.48 0 4.49-2.02 4.49-4.5a4.49 4.49 0 0 0-4.49-4.49l-97.08-.12a4.49 4.49 0 1 0 0 8.98z" class="cls-28"/><path d="m647.24 363.19-103.39.12c-2.48 0-4.5-2.02-4.49-4.5a4.49 4.49 0 0 1 4.49-4.49l103.38-.14a4.49 4.49 0 0 1 4.49 4.49c0 2.48-2 4.5-4.48 4.51z" class="cls-10"/><path d="m709.27 363.11-35.96.05a4.49 4.49 0 1 1 0-8.98l35.96-.05a4.49 4.49 0 1 1 0 8.98z" class="cls-9"/><path d="m601.68 390.11-36.86.05a4.49 4.49 0 1 1 0-8.98l36.86-.05a4.49 4.49 0 0 1 4.49 4.49 4.509 4.509 0 0 1-4.49 4.49z" class="cls-28"/><path d="m657.41 390.02-36.86.05a4.49 4.49 0 1 1 0-8.98l36.86-.05a4.49 4.49 0 1 1 0 8.98z" class="cls-9"/><path d="m676.26 416.98-68.32.09a4.49 4.49 0 1 1 0-8.98l68.32-.08a4.49 4.49 0 0 1 4.49 4.49c0 2.48-2.02 4.48-4.49 4.49z" class="cls-28"/><path d="m587.26 417.09-23.37.03a4.49 4.49 0 1 1 0-8.98l23.37-.03a4.49 4.49 0 1 1 0 8.98z" class="cls-9"/><path d="m710.45 389.96-33.26.05a4.49 4.49 0 1 1 0-8.98l33.26-.05a4.49 4.49 0 1 1 0 8.98z" class="cls-10"/><path d="m568.92 453.18-25.17.03a4.49 4.49 0 1 1 0-8.98l25.17-.03a4.49 4.49 0 1 1 0 8.98z" class="cls-28"/><path d="m686.68 453.03-99.78.12a4.49 4.49 0 1 1 0-8.98l99.78-.13a4.49 4.49 0 0 1 4.49 4.49c0 2.49-2.01 4.51-4.49 4.51z" class="cls-25"/><path d="m587.76 480.12-44.05.07a4.49 4.49 0 1 1 0-8.98l44.05-.05a4.49 4.49 0 0 1 4.49 4.49c0 2.48-2.02 4.48-4.49 4.48z" class="cls-10"/><path d="m655.15 507-22.47.03c-2.48 0-4.5-2.02-4.49-4.5a4.49 4.49 0 0 1 4.49-4.49l22.47-.03a4.49 4.49 0 0 1 4.49 4.49c0 2.48-2.01 4.5-4.49 4.5z" class="cls-25"/><path d="m610.2 507.07-67.42.08a4.49 4.49 0 1 1 0-8.98l67.42-.08a4.49 4.49 0 0 1 4.49 4.49c0 2.48-2.02 4.49-4.49 4.49zm96.22-27.1-97.08.12a4.49 4.49 0 1 1 0-8.98l97.08-.12a4.49 4.49 0 1 1 0 8.98z" class="cls-28"/></g><rect width="423.27" height="461.76" x="516.64" y="113.43" class="cls-29" rx="4.88" ry="4.88"/><path d="m630.57 180 109.44.13c2.63 0 4.76-2.13 4.76-4.76s-2.13-4.76-4.76-4.76l-109.42-.15c-2.63 0-4.76 2.13-4.76 4.76s2.11 4.76 4.74 4.77z" class="cls-10"/><path d="m564.92 179.91 38.06.05c2.63 0 4.76-2.13 4.76-4.76s-2.13-4.76-4.76-4.76l-38.06-.05c-2.63 0-4.76 2.13-4.76 4.76s2.13 4.76 4.76 4.76z" class="cls-9"/><path d="m678.79 208.49 39.01.05c2.63 0 4.76-2.13 4.76-4.76s-2.13-4.76-4.76-4.76l-39.01-.05c-2.63 0-4.76 2.13-4.76 4.76.01 2.62 2.14 4.74 4.76 4.76z" class="cls-28"/><path d="m619.8 208.4 39.01.05c2.63 0 4.76-2.13 4.76-4.76s-2.13-4.76-4.76-4.76l-39.01-.05c-2.63 0-4.76 2.13-4.76 4.76s2.13 4.76 4.76 4.76z" class="cls-9"/><path d="m599.86 236.93 72.31.09c2.63 0 4.76-2.13 4.76-4.76s-2.13-4.76-4.76-4.76l-72.31-.09c-2.63 0-4.76 2.13-4.76 4.76s2.13 4.76 4.76 4.76z" class="cls-28"/><path d="m694.05 237.06 24.74.03c2.63 0 4.76-2.13 4.76-4.76s-2.13-4.76-4.76-4.76l-24.74-.03c-2.63 0-4.76 2.13-4.76 4.76s2.13 4.76 4.76 4.76z" class="cls-9"/><path d="m563.67 208.33 35.21.05c2.63 0 4.76-2.13 4.76-4.76s-2.13-4.76-4.76-4.76l-35.21-.05c-2.63 0-4.76 2.13-4.76 4.76s2.13 4.76 4.76 4.76z" class="cls-10"/><path d="m713.47 275.25 26.64.03c2.63 0 4.76-2.13 4.76-4.76s-2.13-4.76-4.76-4.76l-26.64-.03c-2.63 0-4.76 2.13-4.76 4.76s2.13 4.76 4.76 4.76z" class="cls-28"/><path d="m588.83 275.1 105.61.12c2.63 0 4.76-2.13 4.76-4.76s-2.13-4.76-4.76-4.76l-105.61-.14c-2.63 0-4.76 2.13-4.76 4.76s2.12 4.77 4.75 4.77z" class="cls-25"/><path d="m693.52 303.76 46.62.07c2.63 0 4.76-2.13 4.76-4.76s-2.13-4.76-4.76-4.76l-46.62-.05c-2.63 0-4.76 2.13-4.76 4.76 0 2.62 2.14 4.74 4.76 4.74z" class="cls-10"/><path d="m622.2 332.22 23.79.03c2.63 0 4.76-2.13 4.76-4.76s-2.13-4.76-4.76-4.76l-23.79-.03c-2.63 0-4.76 2.13-4.76 4.76s2.13 4.76 4.76 4.76z" class="cls-25"/><path d="m669.77 332.29 71.36.09c2.63 0 4.76-2.13 4.76-4.76s-2.13-4.76-4.76-4.76l-71.36-.09c-2.63 0-4.76 2.13-4.76 4.76 0 2.62 2.13 4.75 4.76 4.76zM567.93 303.6l102.76.12a4.75 4.75 0 0 0 4.75-4.76c0-2.63-2.13-4.76-4.76-4.76l-102.75-.12c-2.63 0-4.76 2.13-4.76 4.76s2.13 4.76 4.76 4.76z" class="cls-28"/><path d="m674.23 364.29-109.44.13c-2.63 0-4.76-2.13-4.76-4.76 0-2.62 2.13-4.75 4.76-4.75l109.42-.15c2.63 0 4.76 2.13 4.76 4.76s-2.11 4.76-4.74 4.77z" class="cls-10"/><path d="m739.88 364.21-38.06.05c-2.63 0-4.76-2.13-4.76-4.76s2.13-4.75 4.75-4.76l38.06-.05c2.63 0 4.76 2.13 4.76 4.76s-2.13 4.76-4.76 4.76z" class="cls-9"/><path d="m626.01 392.78-39.01.05c-2.63 0-4.76-2.13-4.76-4.76s2.13-4.76 4.76-4.76l39.01-.05c2.63 0 4.76 2.13 4.76 4.76-.01 2.62-2.14 4.74-4.76 4.76z" class="cls-28"/><path d="m685 392.7-39.01.05c-2.63 0-4.76-2.13-4.76-4.76s2.13-4.76 4.76-4.76l39.01-.05c2.63 0 4.76 2.13 4.76 4.76s-2.13 4.76-4.76 4.76z" class="cls-9"/><path d="m704.94 421.22-72.31.1c-2.63 0-4.76-2.13-4.76-4.76s2.13-4.76 4.76-4.76l72.31-.09c2.63 0 4.76 2.13 4.76 4.76 0 2.62-2.13 4.75-4.76 4.75z" class="cls-28"/><path d="m610.75 421.35-24.74.03c-2.63 0-4.76-2.13-4.76-4.76s2.13-4.76 4.76-4.76l24.74-.03c2.63 0 4.76 2.13 4.76 4.76s-2.13 4.76-4.76 4.76z" class="cls-9"/><path d="m741.13 392.63-35.21.05c-2.63 0-4.76-2.13-4.76-4.76s2.13-4.76 4.76-4.76l35.21-.05c2.63 0 4.76 2.13 4.76 4.76s-2.13 4.76-4.76 4.76z" class="cls-10"/><path d="m591.33 459.55-26.64.03c-2.63 0-4.76-2.13-4.76-4.76s2.13-4.76 4.76-4.76l26.64-.03c2.63 0 4.76 2.13 4.76 4.76s-2.13 4.76-4.76 4.76z" class="cls-28"/><path d="m715.97 459.39-105.61.12c-2.63 0-4.76-2.13-4.76-4.76s2.13-4.76 4.76-4.76l105.61-.14c2.63 0 4.76 2.13 4.76 4.76s-2.12 4.77-4.75 4.77z" class="cls-25"/><path d="m611.27 488.05-46.62.07c-2.63 0-4.76-2.13-4.76-4.76s2.13-4.76 4.76-4.76l46.62-.05c2.63 0 4.76 2.13 4.76 4.76 0 2.62-2.14 4.74-4.76 4.74z" class="cls-10"/><path d="m682.6 516.51-23.79.03c-2.63 0-4.76-2.13-4.76-4.76s2.13-4.76 4.76-4.76l23.79-.03c2.63 0 4.76 2.13 4.76 4.76s-2.12 4.76-4.75 4.77z" class="cls-25"/><path d="m635.02 516.58-71.36.09c-2.63 0-4.76-2.13-4.76-4.76s2.13-4.76 4.76-4.76l71.36-.09c2.63 0 4.76 2.13 4.76 4.76 0 2.62-2.13 4.75-4.76 4.76zm101.85-28.68-102.76.12c-2.63 0-4.76-2.13-4.76-4.76s2.13-4.76 4.76-4.76l102.76-.12c2.62 0 4.75 2.13 4.75 4.76a4.77 4.77 0 0 1-4.75 4.76z" class="cls-28"/><g fill="none" stroke-linecap="round" stroke-linejoin="round" stroke-width="10"><path stroke="url(#linear-gradient)" d="M356.24 303.48h89.61"/><path stroke="url(#linear-gradient-2)" d="M445.85 359.48h-89.61"/><path stroke="url(#linear-gradient-3)" d="m435.3 316.48 12.18-13.12-12.18-12.88"/><path stroke="url(#linear-gradient-4)" d="m368.42 346.47-12.18 13.12 12.18 12.88"/></g><path fill="#fff" stroke="#f8f9fb" stroke-linecap="square" stroke-width="1.24" d="M75.39 269.18v124.59c0 3.48 1.86 6.7 4.87 8.44l107.9 62.29a9.758 9.758 0 0 0 9.75 0l107.9-62.29a9.734 9.734 0 0 0 4.87-8.44V269.18c0-3.48-1.86-6.7-4.87-8.44l-107.9-62.29a9.758 9.758 0 0 0-9.75 0l-107.9 62.29a9.734 9.734 0 0 0-4.87 8.44z" filter="url(#drop-shadow-1)"/><path d="m237.15 359.42-44.12 25.85-43.31-25v-46.26l-27.44-15.84v77.94l70.75 40.85 70.75-40.85v-52.36h-81.39l54.76 35.67z" class="cls-21"/><path fill="url(#radial-gradient-3)" d="m187.76 246-65.48 37.8 27.44 15.84 38.04-21.96V246z"/><path fill="url(#radial-gradient-4)" d="M198.3 245.99v31.69l38.04 21.96 27.44-15.84-65.48-37.81z"/><path fill="url(#radial-gradient-5)" d="m237.15 359.42 26.63 16.69-70.75 40.85v-31.69l44.12-25.85z"/><path fill="#fff" d="M651.72 110.43h100.54v458.31H651.72z" filter="url(#drop-shadow-2)"/><path fill="url(#linear-gradient-5)" d="M978.04 107.91h-.64V40.48C977.4 18.12 959.28 0 936.92 0H691.54c-22.36 0-40.48 18.12-40.48 40.48v67.43h-.64c-2.92 0-5.29 2.37-5.29 5.29v46.64c0 2.92 2.37 5.29 5.29 5.29h.64v11.12h-.64c-2.92 0-5.29 2.37-5.29 5.29v46.64c0 2.92 2.37 5.29 5.29 5.29h.64v408.49c0 22.36 18.12 40.48 40.48 40.48h245.38c22.36 0 40.48-18.12 40.48-40.48V193.73h.64c2.92 0 5.29-2.37 5.29-5.29v-75.25c0-2.92-2.37-5.29-5.29-5.29z"/><path fill="url(#linear-gradient-6)" d="M978.04 107.91h-.64V40.48C977.4 18.12 959.28 0 936.92 0H691.54c-22.36 0-40.48 18.12-40.48 40.48v67.43h-.64c-2.92 0-5.29 2.37-5.29 5.29v46.64c0 2.92 2.37 5.29 5.29 5.29h.64v11.12h-.64c-2.92 0-5.29 2.37-5.29 5.29v46.64c0 2.92 2.37 5.29 5.29 5.29h.64v408.49c0 22.36 18.12 40.48 40.48 40.48h245.38c22.36 0 40.48-18.12 40.48-40.48V193.73h.64c2.92 0 5.29-2.37 5.29-5.29v-75.25c0-2.92-2.37-5.29-5.29-5.29z" style="mix-blend-mode:lighten"/><path fill="#fff" d="M965.61 42.89v596.65c0 18.15-14.72 32.88-32.88 32.88H695.71c-18.15 0-32.88-14.73-32.88-32.88V42.89c0-18.16 14.73-32.88 32.88-32.88h237.02c18.16 0 32.88 14.72 32.88 32.88z"/><path d="M794.77 619.5c-2.68 0-4.86 2.18-4.86 4.86s2.18 4.86 4.86 4.86 4.86-2.18 4.86-4.86-2.18-4.86-4.86-4.86zm19.45 9.78c-2.68 0-4.86-2.18-4.86-4.86s2.18-4.86 4.86-4.86 4.86 2.18 4.86 4.86-2.18 4.86-4.86 4.86zm0-8.12c-1.8 0-3.27 1.47-3.27 3.27s1.47 3.27 3.27 3.27 3.27-1.47 3.27-3.27-1.47-3.27-3.27-3.27zm19.45 8.2c-2.68 0-4.86-2.18-4.86-4.86s2.18-4.86 4.86-4.86 4.86 2.18 4.86 4.86-2.18 4.86-4.86 4.86zm0-8.12c-1.8 0-3.27 1.47-3.27 3.27a3.271 3.271 0 0 0 6.54 0c0-1.8-1.47-3.27-3.27-3.27z" class="cls-21"/><path d="M965.61 42.89v118.45H662.83V42.89c0-18.16 14.73-32.88 32.88-32.88h237.02c18.16 0 32.88 14.72 32.88 32.88z" class="cls-29"/><path d="M818.9 89.17v6.3c-3.23 2.68-6.34 2.58-9.35 0v-6.3c2.78-1.74 6.06-1.74 9.35 0z" class="cls-18"/><path d="M818.9 95.47c3.1 0 5.61 2.51 5.61 5.61-7.12 2.68-14 2.97-20.57 0 0-3.1 2.51-5.61 5.61-5.61h9.35z" class="cls-15"/><path d="M796.83 59c3.11.16 3.45 3.32.3 3.74H795c-2.29 0-4.15 1.86-4.15 4.15v3.58c0 3.09 1.18 5.91 3.12 8.03l.31.51a3.3 3.3 0 0 1-.63 4.18c-3.96-2.84-6.54-7.48-6.54-12.72v-3.58c0-4.35 3.53-7.88 7.88-7.88h1.83z" class="cls-18"/><path d="M801.13 83.19v12.29c0 1.38-1.66 2.06-2.64 1.09l-1.1-1.1-1.1 1.1c-.97.97-2.64.28-2.64-1.09V80.33a5.43 5.43 0 0 1 4.44-5.34c3.04.35 3.32 3.18 3.04 8.2z" class="cls-24"/><path d="M841.34 66.89v3.58c0 5.23-2.58 9.88-6.54 12.72a3.105 3.105 0 0 1-.75-3.91l.43-.78c1.94-2.12 3.12-4.94 3.12-8.03v-3.58c0-2.29-1.86-4.15-4.15-4.15h-2.13c-2.31-.33-2.09-3.4.3-3.74h1.83c4.35 0 7.89 3.53 7.89 7.88z" class="cls-16"/><path d="M827.31 83.19c.17-4.69 0-7.86 3.04-8.2 2.54.47 4.44 2.7 4.44 5.34v15.15c0 1.38-1.66 2.06-2.64 1.09l-1.1-1.1-1.1 1.1c-.97.97-2.64.28-2.64-1.09V83.19z" class="cls-24"/><path d="M830.36 74.94c.78-9.84.19-2.39 1.63-20.62-8.25-2.82-16.59-2.66-25 0-5.96 12.19-1.97 27.05 9.52 35.37 7.24-1.03 13.19-6.9 13.85-14.75z" class="cls-15"/><path d="M806.99 54.33c-3.98-2.28-7.49-2.29-10.53 0 .04.5 1.62 20.55 1.63 20.66.75 9.25 9.15 16.02 18.42 14.71-8.77-8.63-12.76-23.5-9.52-35.37z" class="cls-16"/><path d="M824.51 70.22c0-3.96-2.24-7.4-5.53-9.12-10.77 1.64-10.87 15.82 0 18.23 3.28-1.72 5.53-5.15 5.53-9.12z" class="cls-16"/><path d="M813.45 70.22c0-3.96 2.24-7.4 5.53-9.12a10.28 10.28 0 0 0-4.76-1.17c-5.68 0-10.28 4.61-10.28 10.28s4.61 10.28 10.28 10.28c1.72 0 3.33-.42 4.76-1.17-3.28-1.72-5.53-5.15-5.53-9.12z" class="cls-18"/><path fill="#1cafeb" d="M816.04 74.94c1.07.56 2.32-.35 2.12-1.54l-.22-1.26c-.08-.47.08-.96.42-1.29l.92-.89c.87-.85.39-2.32-.81-2.49l-1.27-.18c-.47-.07-.89-.37-1.1-.8l-.57-1.15c-.12-.25-.3-.44-.51-.58-2.63 2.84-3.11 6.35-.78 9.42.23 0 .45.06.66.17l1.13.59z"/><path d="M815.02 64.76c-.69-.45-1.7-.26-2.11.58l-.57 1.15c-.21.43-.62.73-1.1.8l-1.27.18c-1.2.17-1.68 1.65-.81 2.49l.92.89c.34.34.5.82.42 1.29l-.22 1.26c-.2 1.19 1.05 2.1 2.12 1.54l1.13-.59c.22-.12.46-.17.7-.17-1.26-3.02-1.03-6.54.78-9.42z" class="cls-10"/><path fill="#485c70" d="M831.05 105.75c0-2.58-2.09-4.67-4.67-4.67h-16.5c-5.64 0-6.24 2.09-6.24 4.67s.61 4.67 6.24 4.67h16.5c2.58 0 4.67-2.09 4.67-4.67z"/><path fill="#3e4f61" d="M805.21 105.75c0-2.58 2.09-4.67 4.67-4.67h-7.81c-2.58 0-4.67 2.09-4.67 4.67s2.09 4.67 4.67 4.67h7.81c-2.58 0-4.67-2.09-4.67-4.67z"/><path d="M835.73 51.52c0-1.55-1.26-2.8-2.8-2.8H803.2c-3.55 0-3.76 1.25-3.76 2.8s.52 2.8 3.76 2.8h29.73c1.55 0 2.8-1.25 2.8-2.8z" class="cls-18"/><path fill="#fea617" d="M800.39 51.52c0-1.55 1.25-2.8 2.8-2.8h-7.67c-1.55 0-2.8 1.25-2.8 2.8s1.26 2.8 2.8 2.8h7.67c-1.55 0-2.8-1.26-2.8-2.8z"/><path d="M942.95 47.63h-20.61c-.47 0-.84-.38-.84-.84s.38-.84.84-.84h20.61c.47 0 .84.38.84.84s-.38.84-.84.84zm0 7.61h-20.61c-.47 0-.84-.38-.84-.84s.38-.84.84-.84h20.61c.47 0 .84.38.84.84s-.38.84-.84.84zm0 7.6h-20.61c-.47 0-.84-.38-.84-.84s.38-.84.84-.84h20.61c.47 0 .84.38.84.84s-.38.84-.84.84z" class="cls-21"/><rect width="77.01" height="13.19" x="775.71" y="129.43" class="cls-21" rx="6.59" ry="6.59"/><g clip-path="url(#clippath)"><path d="M681.78 194.95h18.05v18.65h-18.05a2.09 2.09 0 0 1-2.09-2.09v-14.46c0-1.16.94-2.09 2.09-2.09z" class="cls-20"/><path d="M812.82 194.95h18.05c1.16 0 2.09.94 2.09 2.09v14.46c0 1.16-.94 2.09-2.09 2.09h-18.05v-18.65z" class="cls-11"/><path d="M699.11 194.95h113.71v18.65H699.11z" class="cls-17"/><circle cx="711.01" cy="204.28" r="7.12" class="cls-26"/><rect width="81.49" height="10.47" x="724.99" y="199.04" class="cls-22" rx="5.23" ry="5.23"/><path d="M681.78 220.46h18.05v18.65h-18.05a2.09 2.09 0 0 1-2.09-2.09v-14.46c0-1.16.94-2.09 2.09-2.09z" class="cls-20"/><path d="M812.82 220.46h18.05c1.16 0 2.09.94 2.09 2.09v14.46c0 1.16-.94 2.09-2.09 2.09h-18.05v-18.65z" class="cls-11"/><path d="M699.11 220.46h113.71v18.65H699.11z" class="cls-17"/><circle cx="711.01" cy="229.78" r="7.12" class="cls-21"/><rect width="81.49" height="10.47" x="724.99" y="224.55" class="cls-22" rx="5.23" ry="5.23"/><path d="M681.78 253.48h18.05v18.65h-18.05a2.09 2.09 0 0 1-2.09-2.09v-14.46c0-1.16.94-2.09 2.09-2.09z" class="cls-20"/><path d="M812.82 253.48h18.05c1.16 0 2.09.94 2.09 2.09v14.46c0 1.16-.94 2.09-2.09 2.09h-18.05v-18.65z" class="cls-11"/><path d="M699.11 253.48h113.71v18.65H699.11z" class="cls-17"/><circle cx="711.01" cy="262.81" r="7.12" class="cls-26"/><rect width="81.49" height="10.47" x="724.99" y="257.58" class="cls-22" rx="5.23" ry="5.23"/><path d="M681.78 278.99h18.05v18.65h-18.05a2.09 2.09 0 0 1-2.09-2.09v-14.46c0-1.16.94-2.09 2.09-2.09z" class="cls-20"/><path d="M812.82 278.99h18.05c1.16 0 2.09.94 2.09 2.09v14.46c0 1.16-.94 2.09-2.09 2.09h-18.05v-18.65z" class="cls-11"/><path d="M699.11 278.99h113.71v18.65H699.11z" class="cls-17"/><circle cx="711.01" cy="288.32" r="7.12" class="cls-21"/><rect width="81.49" height="10.47" x="724.99" y="283.08" class="cls-22" rx="5.23" ry="5.23"/><path d="M843.28 216.71h17.01v59.03h-17.01" class="cls-5"/><path d="M681.78 337.17h18.05v18.65h-18.05a2.09 2.09 0 0 1-2.09-2.09v-14.46c0-1.16.94-2.09 2.09-2.09z" class="cls-20"/><path d="M812.82 337.17h18.05c1.16 0 2.09.94 2.09 2.09v14.46c0 1.16-.94 2.09-2.09 2.09h-18.05v-18.65z" class="cls-11"/><path d="M699.11 337.17h113.71v18.65H699.11z" class="cls-17"/><circle cx="711.01" cy="346.5" r="7.12" class="cls-26"/><rect width="81.49" height="10.47" x="724.99" y="341.27" class="cls-22" rx="5.23" ry="5.23"/><path d="M681.78 362.68h18.05v18.65h-18.05a2.09 2.09 0 0 1-2.09-2.09v-14.46c0-1.16.94-2.09 2.09-2.09z" class="cls-20"/><path d="M812.82 362.68h18.05c1.16 0 2.09.94 2.09 2.09v14.46c0 1.16-.94 2.09-2.09 2.09h-18.05v-18.65z" class="cls-11"/><path d="M699.11 362.68h113.71v18.65H699.11z" class="cls-17"/><circle cx="711.01" cy="372.01" r="7.12" class="cls-21"/><rect width="81.49" height="10.47" x="724.99" y="366.77" class="cls-22" rx="5.23" ry="5.23"/><path d="M681.78 395.71h18.05v18.65h-18.05a2.09 2.09 0 0 1-2.09-2.09v-14.46c0-1.16.94-2.09 2.09-2.09z" class="cls-20"/><path d="M812.82 395.71h18.05c1.16 0 2.09.94 2.09 2.09v14.46c0 1.16-.94 2.09-2.09 2.09h-18.05V395.7z" class="cls-11"/><path d="M699.11 395.71h113.71v18.65H699.11z" class="cls-17"/><circle cx="711.01" cy="405.03" r="7.12" class="cls-26"/><rect width="81.49" height="10.47" x="724.99" y="399.8" class="cls-22" rx="5.23" ry="5.23"/><path d="M681.78 421.21h18.05v18.65h-18.05a2.09 2.09 0 0 1-2.09-2.09v-14.46c0-1.16.94-2.09 2.09-2.09z" class="cls-20"/><path d="M812.82 421.21h18.05c1.16 0 2.09.94 2.09 2.09v14.46c0 1.16-.94 2.09-2.09 2.09h-18.05V421.2z" class="cls-11"/><path d="M699.11 421.21h113.71v18.65H699.11z" class="cls-17"/><circle cx="711.01" cy="430.54" r="7.12" class="cls-21"/><rect width="81.49" height="10.47" x="724.99" y="425.31" class="cls-22" rx="5.23" ry="5.23"/><path d="M843.28 358.93h17.01v59.03h-17.01" class="cls-5"/><path d="M890.71 379.12h18.05v18.65h-18.05a2.09 2.09 0 0 1-2.09-2.09v-14.46c0-1.16.94-2.09 2.09-2.09z" class="cls-20"/><path d="M1021.74 379.12h18.05c1.16 0 2.09.94 2.09 2.09v14.46c0 1.16-.94 2.09-2.09 2.09h-18.05v-18.65z" class="cls-11"/><path d="M908.04 379.12h113.71v18.65H908.04z" class="cls-17"/><circle cx="919.94" cy="388.45" r="7.12" class="cls-26"/><rect width="81.49" height="10.47" x="933.92" y="383.21" class="cls-22" rx="5.23" ry="5.23"/><path d="M890.71 521.41h18.05v18.65h-18.05a2.09 2.09 0 0 1-2.09-2.09v-14.46c0-1.16.94-2.09 2.09-2.09z" class="cls-20"/><path d="M1021.74 521.41h18.05c1.16 0 2.09.94 2.09 2.09v14.46c0 1.16-.94 2.09-2.09 2.09h-18.05V521.4z" class="cls-11"/><path d="M908.04 521.41h113.71v18.65H908.04z" class="cls-17"/><circle cx="919.94" cy="530.74" r="7.12" class="cls-26"/><rect width="81.49" height="10.47" x="933.92" y="525.51" class="cls-22" rx="5.23" ry="5.23"/><path d="M890.71 237.76h18.05v18.65h-18.05a2.09 2.09 0 0 1-2.09-2.09v-14.46c0-1.16.94-2.09 2.09-2.09z" class="cls-20"/><path d="M1021.74 237.76h18.05c1.16 0 2.09.94 2.09 2.09v14.46c0 1.16-.94 2.09-2.09 2.09h-18.05v-18.65z" class="cls-11"/><path d="M908.04 237.76h113.71v18.65H908.04z" class="cls-17"/><circle cx="919.94" cy="247.09" r="7.12" class="cls-21"/><rect width="81.49" height="10.47" x="933.92" y="241.86" class="cls-22" rx="5.23" ry="5.23"/><path d="M681.78 479.39h18.05v18.65h-18.05a2.09 2.09 0 0 1-2.09-2.09v-14.46c0-1.16.94-2.09 2.09-2.09z" class="cls-20"/><path d="M812.82 479.39h18.05c1.16 0 2.09.94 2.09 2.09v14.46c0 1.16-.94 2.09-2.09 2.09h-18.05v-18.65z" class="cls-11"/><path d="M699.11 479.39h113.71v18.65H699.11z" class="cls-17"/><circle cx="711.01" cy="488.72" r="7.12" class="cls-26"/><rect width="81.49" height="10.47" x="724.99" y="483.49" class="cls-22" rx="5.23" ry="5.23"/><path d="M681.78 504.9h18.05v18.65h-18.05a2.09 2.09 0 0 1-2.09-2.09V507c0-1.16.94-2.09 2.09-2.09z" class="cls-20"/><path d="M812.82 504.9h18.05c1.16 0 2.09.94 2.09 2.09v14.46c0 1.16-.94 2.09-2.09 2.09h-18.05v-18.65z" class="cls-11"/><path d="M699.11 504.9h113.71v18.65H699.11z" class="cls-17"/><circle cx="711.01" cy="514.23" r="7.12" class="cls-21"/><rect width="81.49" height="10.47" x="724.99" y="508.99" class="cls-22" rx="5.23" ry="5.23"/><path d="M681.78 537.93h18.05v18.65h-18.05a2.09 2.09 0 0 1-2.09-2.09v-14.46c0-1.16.94-2.09 2.09-2.09z" class="cls-20"/><path d="M812.82 537.93h18.05c1.16 0 2.09.94 2.09 2.09v14.46c0 1.16-.94 2.09-2.09 2.09h-18.05v-18.65z" class="cls-11"/><path d="M699.11 537.93h113.71v18.65H699.11z" class="cls-17"/><circle cx="711.01" cy="547.25" r="7.12" class="cls-26"/><rect width="81.49" height="10.47" x="724.99" y="542.02" class="cls-22" rx="5.23" ry="5.23"/><path d="M681.78 563.43h18.05v18.65h-18.05a2.09 2.09 0 0 1-2.09-2.09v-14.46c0-1.16.94-2.09 2.09-2.09z" class="cls-20"/><path d="M812.82 563.43h18.05c1.16 0 2.09.94 2.09 2.09v14.46c0 1.16-.94 2.09-2.09 2.09h-18.05v-18.65z" class="cls-11"/><path d="M699.11 563.43h113.71v18.65H699.11z" class="cls-17"/><circle cx="711.01" cy="572.76" r="7.12" class="cls-21"/><rect width="81.49" height="10.47" x="724.99" y="567.53" class="cls-22" rx="5.23" ry="5.23"/><path d="M843.28 501.15h17.01v59.03h-17.01m17.01-313.09h22.28m-22.28 141.43h22.28m-22.28 142.22h22.28" class="cls-5"/></g><path fill="none" stroke="#32416b" stroke-linecap="round" stroke-linejoin="round" stroke-width="2" d="M700.6 54.39h-16.22m2.84-3.04-2.85 3.07 2.85 3.01"/></g></g></svg>