<svg xmlns="http://www.w3.org/2000/svg" id="Layer_1" data-name="Layer 1" viewBox="0 0 379.8 174.6"><defs><radialGradient id="radial-gradient" cx="-26.92" cy="194" r="130.1" fx="-26.92" fy="194" gradientTransform="matrix(1 0 0 -1 0 176.6)" gradientUnits="userSpaceOnUse"><stop offset="0" stop-color="#0ff"/><stop offset="1" stop-color="#298be2"/></radialGradient><radialGradient id="radial-gradient-2" cx="-26.92" cy="194" r="130.1" fx="-26.92" fy="194" gradientTransform="matrix(1 0 0 -1 0 176.6)" gradientUnits="userSpaceOnUse"><stop offset="0" stop-color="#0ff"/><stop offset="1" stop-color="#298be2"/></radialGradient><radialGradient id="radial-gradient-3" cx="248.41" cy="146.64" r="36.39" fx="248.41" fy="146.64" gradientTransform="matrix(1 0 0 -1 0 176.6)" gradientUnits="userSpaceOnUse"><stop offset="0" stop-color="#0ff"/><stop offset="1" stop-color="#298be2"/></radialGradient><radialGradient id="radial-gradient-4" cx="151.11" cy="88.58" r="105.27" fx="151.11" fy="88.58" gradientTransform="matrix(1 0 0 -1 0 176.6)" gradientUnits="userSpaceOnUse"><stop offset=".08" stop-color="#4d4d4d"/><stop offset="1" stop-color="#fff" stop-opacity="0"/></radialGradient><radialGradient id="radial-gradient-5" cx="199.86" cy="106.02" r="77.73" fx="199.86" fy="106.02" gradientTransform="matrix(1 0 0 -1 0 176.6)" gradientUnits="userSpaceOnUse"><stop offset=".08" stop-color="#4d4d4d"/><stop offset="1" stop-color="#fff" stop-opacity="0"/></radialGradient><radialGradient id="radial-gradient-6" cx="392.41" cy="152.64" r="130.95" fx="392.41" fy="152.64" gradientTransform="matrix(1 0 0 -1 0 176.6)" gradientUnits="userSpaceOnUse"><stop offset=".08" stop-color="#4d4d4d"/><stop offset="1" stop-color="#fff" stop-opacity="0"/></radialGradient><style>.cls-1{fill:#fff}</style></defs><path d="m117.4 115.9-45.1 26.4L28 116.7V69.5L0 53.3v79.6l72.3 41.7 72.3-41.7V79.4H61.4l56 36.5z" class="cls-1"/><path fill="url(#radial-gradient)" d="M66.9 0 0 38.6l28 16.2 38.9-22.5V0z"/><path fill="url(#radial-gradient-2)" d="M77.7 0v32.3l38.8 22.5 28.1-16.2L77.7 0z"/><path d="M256.6 78.9h21v55.5h-21zm-93.8-40h21v95.4h-21z" class="cls-1"/><path d="M179 58.7h31c3.1 0 5.7 1.2 7.9 3.6 2.3 2.4 3.4 5.3 3.4 8.8s-1.1 6.4-3.4 8.8c-2.2 2.4-4.8 3.6-7.9 3.6h-16.6l29.6 50.9h22.9l-21-35.8c5-2.6 9.1-6.2 12.2-10.9 3.4-5.1 5.1-10.7 5.1-16.7 0-8.8-3.2-16.4-9.4-22.7-6.2-6.2-13.9-9.4-22.8-9.4h-42.6L179 58.7zm187.6-6c-8.7-9.2-19.8-13.8-32.8-13.8h-72.9v20.2h72.9c7.6 0 13.9 2.6 18.6 7.6 4.8 5.1 7.2 11.8 7.2 20s-2.4 14.9-7.2 20c-4.7 5-11 7.6-18.6 7.6h-17.2V79h-21v55.3h38.2c13 0 24.1-4.6 32.8-13.8 8.7-9.1 13.2-20.5 13.2-33.9s-4.4-24.8-13.2-33.9z" class="cls-1"/><path fill="url(#radial-gradient-3)" d="M256.6 38.9h21v20.2h-21z"/><path fill="url(#radial-gradient-4)" d="m117.4 115.9 27.2 17-72.3 41.7v-32.3l45.1-26.4z"/><path fill="url(#radial-gradient-5)" d="M224.9 98.6s-19.6 5.2-13.6 15.6c6 10.4 11.7 20.2 11.7 20.2h22.9l-21-35.8z"/><path fill="url(#radial-gradient-6)" d="m366.8 120.4-.2.2c-8.7 9.1-19.7 13.7-32.8 13.7h-17.2v-20.2h17.2c7.6 0 13.9-2.6 18.6-7.6 4.8-5.1 7.2-11.8 7.2-20s-2.4-14.9-7.2-20c-4.8-5-11-7.6-18.6-7.6 0 0 13.3-.3 25.3 6.7 19.4 11.5 23.2 38.4 7.7 54.8z"/></svg>