<svg width="1.4175000000000002em" height="1.35em" viewBox="0 0 21 20" fill="none" xmlns="http://www.w3.org/2000/svg" class="px-icon embed-copilot-prompt__icon">
    <mask xmlns="http://www.w3.org/2000/svg" id="mask0_7519_3714" style="mask-type:alpha" maskUnits="userSpaceOnUse" x="0" y="0" width="21" height="20">
    <path fill-rule="evenodd" clip-rule="evenodd" d="M14.9138 4.94143C14.9138 2.50481 12.9385 0.529541 10.5019 0.529541C8.06531 0.529541 6.09003 2.50481 6.09003 4.94143L6.09003 11.4432C6.09003 13.8798 8.06531 15.8551 10.5019 15.8551C12.9385 15.8551 14.9138 13.8798 14.9138 11.4432L14.9138 4.94143ZM10.5019 1.92277C12.1691 1.92277 13.5206 3.27427 13.5206 4.94143L13.5206 11.4432C13.5206 13.1103 12.1691 14.4618 10.5019 14.4618C8.83477 14.4618 7.48326 13.1103 7.48326 11.4432L7.48326 4.94143C7.48326 3.27427 8.83476 1.92277 10.5019 1.92277Z" fill="#33302E"></path>
    <path fill-rule="evenodd" clip-rule="evenodd" d="M17.9325 7.03128C17.5478 7.03128 17.2359 7.34316 17.2359 7.72789V11.4432C17.2359 15.1622 14.221 18.1771 10.5019 18.1771C6.78287 18.1771 3.76799 15.1622 3.76799 11.4432L3.76799 7.72789C3.76798 7.34316 3.4561 7.03128 3.07137 7.03128C2.68664 7.03128 2.37476 7.34316 2.37476 7.72789L2.37476 11.4432C2.37476 15.9317 6.01341 19.5703 10.5019 19.5703C14.9904 19.5703 18.6291 15.9317 18.6291 11.4432V7.72789C18.6291 7.34316 18.3172 7.03128 17.9325 7.03128Z" fill="#33302E"></path>
    </mask>
    <g xmlns="http://www.w3.org/2000/svg" mask="url(#mask0_7519_3714)">
    <rect width="24" height="24" transform="translate(-1.5 -2)" fill="#33302E"></rect>
    </g>
</svg>