<svg width="31" height="31" viewBox="0 0 31 31" fill="none" xmlns="http://www.w3.org/2000/svg">
<g clip-path="url(#clip0_233_1713)">
<path d="M14.585 10.184H12.21C10.9972 10.1672 9.81656 10.5743 8.87181 11.335C7.92707 12.0957 7.27743 13.1622 7.03496 14.3506H2.08496V16.0173H7.02663C7.26484 17.2094 7.91448 18.2798 8.86197 19.0415C9.80947 19.8031 10.9945 20.2075 12.21 20.184H14.585V10.184Z" fill="#19BAEE"/>
<path d="M23.9426 14.3506C23.6997 13.1594 23.0476 12.0906 22.0994 11.3296C21.1512 10.5686 19.9666 10.1633 18.751 10.184H16.251V20.184H18.751C19.9664 20.2075 21.1515 19.8032 22.099 19.0415C23.0465 18.2799 23.6961 17.2094 23.9343 16.0173H28.751V14.3506H23.9426Z" fill="#19BAEE"/>
</g>
<defs>
<clipPath id="clip0_233_1713">
<rect width="30" height="30" fill="white" transform="translate(0.417969 0.18396)"/>
</clipPath>
</defs>
</svg>
