<svg width="31" height="31" viewBox="0 0 31 31" fill="none" xmlns="http://www.w3.org/2000/svg">
<path fill-rule="evenodd" clip-rule="evenodd" d="M26.566 14.196C25.4349 7.87856 22.9059 6.01514 21.5606 6.01514C19.4612 6.01514 18.9225 7.5759 14.4544 7.62848C9.98628 7.5759 9.44764 6.01514 7.34824 6.01514C6.00293 6.01514 3.47262 7.87856 2.34149 14.196C1.69641 17.8023 0.996179 23.1861 2.66467 23.8325C4.74099 24.6366 5.44506 22.6257 7.72529 20.9264C10.0401 19.204 11.1508 18.7988 14.4544 18.7988C17.758 18.7988 18.8687 19.204 21.1835 20.9264C23.4637 22.6244 24.1678 24.6366 26.2441 23.8325C27.9126 23.1861 27.2124 17.8036 26.566 14.196ZM9.32453 15.0155C8.64426 15.0155 7.99186 14.7453 7.51084 14.2642C7.02982 13.7832 6.75959 13.1308 6.75959 12.4506C6.75959 11.7703 7.02982 11.1179 7.51084 10.6369C7.99186 10.1559 8.64426 9.88562 9.32453 9.88562C10.0048 9.88562 10.6572 10.1559 11.1382 10.6369C11.6192 11.1179 11.8895 11.7703 11.8895 12.4506C11.8895 13.1308 11.6192 13.7832 11.1382 14.2642C10.6572 14.7453 10.0048 15.0155 9.32453 15.0155ZM18.3018 15.0155C17.9617 15.0155 17.6355 14.8804 17.395 14.6399C17.1544 14.3994 17.0193 14.0732 17.0193 13.733C17.0193 13.3929 17.1544 13.0667 17.395 12.8262C17.6355 12.5857 17.9617 12.4506 18.3018 12.4506C18.6419 12.4506 18.9681 12.5857 19.2086 12.8262C19.4492 13.0667 19.5843 13.3929 19.5843 13.733C19.5843 14.0732 19.4492 14.3994 19.2086 14.6399C18.9681 14.8804 18.6419 15.0155 18.3018 15.0155ZM20.8667 12.4506C20.5266 12.4506 20.2004 12.3154 19.9599 12.0749C19.7194 11.8344 19.5843 11.5082 19.5843 11.1681C19.5843 10.828 19.7194 10.5018 19.9599 10.2613C20.2004 10.0207 20.5266 9.88562 20.8667 9.88562C21.2069 9.88562 21.5331 10.0207 21.7736 10.2613C22.0141 10.5018 22.1492 10.828 22.1492 11.1681C22.1492 11.5082 22.0141 11.8344 21.7736 12.0749C21.5331 12.3154 21.2069 12.4506 20.8667 12.4506Z" fill="#19BAEE"/>
</svg>
