<svg width="31" height="31" viewBox="0 0 31 31" fill="none" xmlns="http://www.w3.org/2000/svg">
<path d="M18.8605 12.7419C20.068 12.7419 21.048 13.7219 21.048 14.9294V20.8657C21.048 22.3579 20.4552 23.7889 19.4001 24.8441C18.345 25.8992 16.9139 26.4919 15.4217 26.4919C13.9295 26.4919 12.4985 25.8992 11.4434 24.8441C10.3882 23.7889 9.79547 22.3579 9.79547 20.8657V14.9294C9.79547 13.7219 10.7742 12.7419 11.983 12.7419H18.8605ZM9.33172 12.7419C8.88149 13.2838 8.61068 13.952 8.55672 14.6544L8.54422 14.9294V20.8657C8.54422 21.9244 8.78422 22.9269 9.21172 23.8219C8.47082 24.0202 7.69426 24.0453 6.94209 23.8955C6.18991 23.7456 5.48228 23.4248 4.8739 22.9578C4.26553 22.4908 3.7727 21.8901 3.43355 21.2022C3.09439 20.5143 2.91798 19.7576 2.91797 18.9907V14.9294C2.91799 14.3805 3.12443 13.8515 3.49632 13.4477C3.8682 13.0439 4.37834 12.7946 4.92547 12.7494L5.10547 12.7419H9.33172ZM21.5117 12.7419H25.7305C26.938 12.7419 27.918 13.7219 27.918 14.9294V18.9919C27.9181 19.7584 27.7421 20.5146 27.4035 21.2022C27.0648 21.8898 26.5726 22.4903 25.9649 22.9574C25.3572 23.4245 24.6503 23.7456 23.8987 23.8959C23.1471 24.0463 22.3711 24.0218 21.6305 23.8244C22.0055 23.0394 22.2355 22.1744 22.2867 21.2594L22.298 20.8657V14.9294C22.298 14.0982 22.0042 13.3357 21.5117 12.7419ZM15.418 3.99194C16.4125 3.99194 17.3664 4.38703 18.0696 5.09029C18.7729 5.79355 19.168 6.74738 19.168 7.74194C19.168 8.73651 18.7729 9.69033 18.0696 10.3936C17.3664 11.0969 16.4125 11.4919 15.418 11.4919C14.4234 11.4919 13.4696 11.0969 12.7663 10.3936C12.0631 9.69033 11.668 8.73651 11.668 7.74194C11.668 6.74738 12.0631 5.79355 12.7663 5.09029C13.4696 4.38703 14.4234 3.99194 15.418 3.99194ZM23.543 5.24194C24.3718 5.24194 25.1666 5.57118 25.7527 6.15723C26.3387 6.74329 26.668 7.53814 26.668 8.36694C26.668 9.19574 26.3387 9.9906 25.7527 10.5767C25.1666 11.1627 24.3718 11.4919 23.543 11.4919C22.7142 11.4919 21.9193 11.1627 21.3333 10.5767C20.7472 9.9906 20.418 9.19574 20.418 8.36694C20.418 7.53814 20.7472 6.74329 21.3333 6.15723C21.9193 5.57118 22.7142 5.24194 23.543 5.24194ZM7.29297 5.24194C8.12177 5.24194 8.91663 5.57118 9.50268 6.15723C10.0887 6.74329 10.418 7.53814 10.418 8.36694C10.418 9.19574 10.0887 9.9906 9.50268 10.5767C8.91663 11.1627 8.12177 11.4919 7.29297 11.4919C6.46417 11.4919 5.66931 11.1627 5.08326 10.5767C4.49721 9.9906 4.16797 9.19574 4.16797 8.36694C4.16797 7.53814 4.49721 6.74329 5.08326 6.15723C5.66931 5.57118 6.46417 5.24194 7.29297 5.24194Z" fill="#19BAEE"/>
</svg>
