<svg width="31" height="31" viewBox="0 0 31 31" fill="none" xmlns="http://www.w3.org/2000/svg">
<path d="M17.7541 17.9215L7.5166 22.684L12.2791 12.4465L22.5166 7.68396M15.0166 2.68396C13.3751 2.68396 11.7496 3.00728 10.2331 3.63547C8.71649 4.26365 7.3385 5.18439 6.17777 6.34513C3.83356 8.68933 2.5166 11.8688 2.5166 15.184C2.5166 18.4992 3.83356 21.6786 6.17777 24.0228C7.3385 25.1835 8.71649 26.1043 10.2331 26.7325C11.7496 27.3606 13.3751 27.684 15.0166 27.684C18.3318 27.684 21.5112 26.367 23.8554 24.0228C26.1996 21.6786 27.5166 18.4992 27.5166 15.184C27.5166 13.5424 27.1933 11.917 26.5651 10.4004C25.9369 8.88385 25.0162 7.50586 23.8554 6.34513C22.6947 5.18439 21.3167 4.26365 19.8001 3.63547C18.2836 3.00728 16.6581 2.68396 15.0166 2.68396ZM15.0166 13.809C14.6519 13.809 14.3022 13.9538 14.0443 14.2117C13.7865 14.4696 13.6416 14.8193 13.6416 15.184C13.6416 15.5486 13.7865 15.8984 14.0443 16.1562C14.3022 16.4141 14.6519 16.559 15.0166 16.559C15.3813 16.559 15.731 16.4141 15.9889 16.1562C16.2467 15.8984 16.3916 15.5486 16.3916 15.184C16.3916 14.8193 16.2467 14.4696 15.9889 14.2117C15.731 13.9538 15.3813 13.809 15.0166 13.809Z" fill="#19BAEE"/>
</svg>
