<svg width="31" height="31" viewBox="0 0 31 31" fill="none" xmlns="http://www.w3.org/2000/svg">
<g clip-path="url(#clip0_233_1753)">
<path d="M10.418 3.42505C10.8995 3.42529 11.3625 3.61077 11.711 3.94306C12.0594 4.27535 12.2667 4.72898 12.2899 5.20994C12.313 5.69091 12.1502 6.16234 11.8352 6.52655C11.5203 6.89076 11.0772 7.11983 10.598 7.1663L10.418 7.17505H8.54297V23.425H10.418C10.8995 23.4253 11.3625 23.6108 11.711 23.9431C12.0594 24.2754 12.2667 24.729 12.2899 25.2099C12.313 25.6909 12.1502 26.1623 11.8352 26.5266C11.5203 26.8908 11.0772 27.1198 10.598 27.1663L10.418 27.175H7.91797C7.12457 27.1752 6.36083 26.8735 5.78166 26.3312C5.20249 25.789 4.85127 25.0467 4.79922 24.255L4.79297 24.05V6.55005C4.79285 5.75665 5.09451 4.99291 5.63677 4.41374C6.17903 3.83457 6.92128 3.48335 7.71297 3.4313L7.91797 3.42505H10.418ZM22.918 3.42505C23.3284 3.42505 23.7347 3.50588 24.1139 3.66293C24.493 3.81997 24.8375 4.05016 25.1277 4.34034C25.4179 4.63052 25.648 4.97502 25.8051 5.35416C25.9621 5.73331 26.043 6.13967 26.043 6.55005V24.05C26.043 24.4604 25.9621 24.8668 25.8051 25.2459C25.648 25.6251 25.4179 25.9696 25.1277 26.2598C24.8375 26.5499 24.493 26.7801 24.1139 26.9372C23.7347 27.0942 23.3284 27.175 22.918 27.175H20.418C19.9207 27.175 19.4438 26.9775 19.0921 26.6259C18.7405 26.2742 18.543 25.7973 18.543 25.3C18.543 24.8028 18.7405 24.3259 19.0921 23.9742C19.4438 23.6226 19.9207 23.425 20.418 23.425H22.293V7.17505H20.418C19.9207 7.17505 19.4438 6.9775 19.0921 6.62587C18.7405 6.27424 18.543 5.79733 18.543 5.30005C18.543 4.80277 18.7405 4.32585 19.0921 3.97422C19.4438 3.62259 19.9207 3.42505 20.418 3.42505H22.918Z" fill="#19BAEE"/>
</g>
<defs>
<clipPath id="clip0_233_1753">
<rect width="30" height="30" fill="white" transform="translate(0.417969 0.300049)"/>
</clipPath>
</defs>
</svg>
